<?xml version="1.0" encoding="utf-8"?>
<!-- Generator: Adobe Illustrator 18.1.1, SVG Export Plug-In . SVG Version: 6.00 Build 0)  -->
<!DOCTYPE svg PUBLIC "-//W3C//DTD SVG 1.1//EN" "http://www.w3.org/Graphics/SVG/1.1/DTD/svg11.dtd">
<svg version="1.1" id="Layer_1" xmlns="http://www.w3.org/2000/svg" xmlns:xlink="http://www.w3.org/1999/xlink" x="0px" y="0px"
	 width="64px" height="64px" viewBox="0 0 64 64" enable-background="new 0 0 64 64" xml:space="preserve">
<g>
	<g>
		<g>
			<path fill="#734098" d="M10.2,42v16.4h43.6V42H10.2L10.2,42z M18.8,54.4c-2.4,0-4.3-1.9-4.3-4.3s1.9-4.1,4.3-4.1s4.3,1.9,4.3,4.3
				S21.2,54.4,18.8,54.4z"/>
			<path fill="#734098" d="M32.6,18.2c0-3.7,2.9-6.6,6.6-6.6c0.3,0,0.7,0,1,0.1l1.6,0.2l0.3-1.6c0.2-1.9,1.2-3.6,2.7-4.7H10.2V22
				h23.6C33.1,20.9,32.6,19.7,32.6,18.2z M18.8,18c-2.4,0-4.1-1.8-4.1-4.1s1.9-4.3,4.3-4.3s4.3,1.9,4.3,4.3S21.2,18,18.8,18z"/>
			<path fill="#734098" d="M39.2,24.8c-1.3,0-2.5-0.3-3.5-1H10.2v16.4h43.6V24.8H39.2z M18.8,36.1c-2.4,0-4.3-1.9-4.3-4.3
				c0-2.4,1.9-4.3,4.3-4.3s4.3,1.9,4.3,4.3C23.1,34.2,21.2,36.1,18.8,36.1z"/>
		</g>
		<g>
			<path fill="#25343E" d="M59,10.7c-0.4-4.7-4.5-8.4-9.3-8.4c-4.6,0-8.5,3.4-9.2,7.8C40,10,39.7,10,39.2,10c-4.6,0-8.3,3.7-8.3,8.3
				s3.7,8.3,8.3,8.3h16.5c4.6,0,8.3-3.7,8.3-8.3C64,14.9,61.9,11.9,59,10.7z M55.7,24.8H39.2c-3.7,0-6.6-2.9-6.6-6.6
				s2.9-6.6,6.6-6.6c0.3,0,0.7,0,1,0.1l1.6,0.2l0.3-1.6c0.7-3.8,3.8-6.5,7.6-6.5c3.9,0,7.3,2.9,7.6,6.9l0.1,1l0.9,0.4
				c2.5,1,4,3.5,4,6.1C62.3,21.9,59.4,24.8,55.7,24.8z"/>
			<g>
				<g>
					<path fill="#25343E" d="M53.7,11.8c0-2-1.7-3.7-3.7-3.7s-3.7,1.7-3.7,3.7v1.7c-0.8,0.9-1.2,2-1.2,3.3c0,2.8,2.2,5,5,5
						s4.9-2.2,4.9-5c0-1.2-0.4-2.5-1.2-3.3L53.7,11.8L53.7,11.8z M47.5,11.8c0-1.3,1.2-2.5,2.5-2.5c1.3,0,2.5,1.2,2.5,2.5v0.7
						c-0.8-0.4-1.6-0.7-2.5-0.7s-1.8,0.2-2.5,0.7V11.8z"/>
				</g>
			</g>
		</g>
	</g>
	<g>
		<rect x="0" y="18.3" fill="none" width="10.2" height="9.9"/>
		<rect x="34.6" y="58.3" fill="none" width="10.2" height="3.4"/>
	</g>
</g>
</svg>
