<?xml version="1.0" encoding="utf-8"?>
<!-- Generator: Adobe Illustrator 18.1.1, SVG Export Plug-In . SVG Version: 6.00 Build 0)  -->
<!DOCTYPE svg PUBLIC "-//W3C//DTD SVG 1.1//EN" "http://www.w3.org/Graphics/SVG/1.1/DTD/svg11.dtd">
<svg version="1.1" id="Layer_1" xmlns="http://www.w3.org/2000/svg" xmlns:xlink="http://www.w3.org/1999/xlink" x="0px" y="0px"
	 width="64px" height="64px" viewBox="0 0 64 64" enable-background="new 0 0 64 64" xml:space="preserve">
<g>
	<g>
		<g>
			<g>
				<g>
					<path fill="#89C541" d="M9.6,4.9v16.8h44.8V4.9L9.6,4.9L9.6,4.9z M18.4,17.6c-2.4,0-4.4-2-4.4-4.4s2-4.4,4.4-4.4s4.4,2,4.4,4.4
						C22.7,15.7,20.8,17.6,18.4,17.6z"/>
					<path fill="#0A4369" d="M9.6,23.5v16.8h44.8V23.5H9.6z M18.4,36.4c-2.4,0-4.4-2-4.4-4.4s2-4.4,4.4-4.4s4.4,2,4.4,4.4
						C22.7,34.4,20.8,36.4,18.4,36.4z"/>
					<path fill="#0A4369" d="M9.6,42.3v16.8h44.8V42.3H9.6z M18.4,55c-2.4,0-4.4-2-4.4-4.4c0-2.4,2-4.4,4.4-4.4s4.4,2,4.4,4.4
						C22.7,53,20.8,55,18.4,55z"/>
				</g>
			</g>
			<circle fill="#FFFFFF" cx="18.4" cy="13.3" r="4.4"/>
			<circle fill="#FFFFFF" cx="18.4" cy="32" r="4.4"/>
			<circle fill="#FFFFFF" cx="18.4" cy="50.6" r="4.4"/>
		</g>
		<g>
			<polygon fill="#D1D3D4" points="9.6,41.8 3.2,41.8 0,37.7 9.6,37.7 			"/>
			<rect x="0" y="21.1" fill="#FFFFFF" width="40.2" height="16.6"/>
			<rect x="7.5" y="26.1" fill="none" width="27.7" height="9.7"/>
			<g enable-background="new    ">
				<path fill="#3B4B54" d="M8.7,26.1h2.8c1.4,0,2.2,0.3,2.2,1.6c0,0.8-0.5,1.5-1.3,1.6v0c0.7,0.2,1,0.7,1,1.4
					c0,1.5-1.2,2.2-2.6,2.2H7.3L8.7,26.1z M9,31.7h1.9c0.7,0,1.2-0.4,1.2-1.1c0-0.7-0.7-0.8-1.2-0.8H9.4L9,31.7z M9.6,28.8h1.7
					c0.5,0,1-0.3,1-0.9c0-0.5-0.3-0.7-0.8-0.7H9.9L9.6,28.8z"/>
				<path fill="#3B4B54" d="M15.3,26.1h5.2l-0.2,1.3h-3.7l-0.3,1.4h3.4l-0.2,1.1H16l-0.4,1.7h3.7l-0.3,1.3h-5.2L15.3,26.1z"/>
				<path fill="#3B4B54" d="M23,27.3h-2.1l0.3-1.3h5.6l-0.3,1.3h-2l-1.1,5.5h-1.5L23,27.3z"/>
				<path fill="#3B4B54" d="M28.4,26.1h1.5l1.1,6.7h-1.5l-0.2-1.5h-2.5L26,32.8h-1.6L28.4,26.1z M27.4,30.2h1.8l-0.3-2.7h0
					L27.4,30.2z"/>
			</g>
		</g>
	</g>
	<rect x="54.4" y="6.6" fill="none" width="9.6" height="14.5"/>
</g>
</svg>
