<?xml version="1.0" encoding="utf-8"?>
<!-- Generator: Adobe Illustrator 18.1.1, SVG Export Plug-In . SVG Version: 6.00 Build 0)  -->
<svg version="1.1" id="Layer_1" xmlns="http://www.w3.org/2000/svg" xmlns:xlink="http://www.w3.org/1999/xlink" x="0px" y="0px"
	 viewBox="-205 297 200 200" enable-background="new -205 297 200 200" xml:space="preserve">
<rect x="-205" y="297" width="200" height="200"/>
<g>
	<rect x="-204.9" y="382.8" fill="#FFFFFF" width="11.5" height="11.5"/>
	<rect x="-137.3" y="369.8" fill="#FFFFFF" width="11.5" height="11.5"/>
	<rect x="-137.3" y="423.9" fill="#FFFFFF" width="11.5" height="11.5"/>
	<rect x="-150.9" y="423.9" fill="#FFFFFF" width="11.5" height="11.5"/>
	<rect x="-123.9" y="369.8" fill="#FFFFFF" width="11.5" height="11.5"/>
	<rect x="-123.9" y="382.8" fill="#FFFFFF" width="11.5" height="11.5"/>
	<rect x="-123.9" y="410.2" fill="#FFFFFF" width="11.5" height="11.5"/>
	<rect x="-150.9" y="382.8" fill="#FFFFFF" width="11.5" height="11.5"/>
	<rect x="-110.2" y="382.8" fill="#FFFFFF" width="11.5" height="11.5"/>
	<rect x="-110.2" y="356.1" fill="#FFFFFF" width="11.5" height="11.5"/>
	<rect x="-110.2" y="396.8" fill="#FFFFFF" width="24.6" height="11.5"/>
	<rect x="-110.2" y="410.2" fill="#FFFFFF" width="11.5" height="11.5"/>
	<rect x="-96.8" y="410.2" fill="#FFFFFF" width="11.5" height="11.5"/>
	<rect x="-83.2" y="410.2" fill="#FFFFFF" width="11.5" height="11.5"/>
	<rect x="-178" y="410.2" fill="#FFFFFF" width="11.5" height="11.5"/>
	<rect x="-164.4" y="410.2" fill="#FFFFFF" width="11.5" height="11.5"/>
	<rect x="-110.2" y="423.9" fill="#FFFFFF" width="11.5" height="11.5"/>
	<rect x="-96.8" y="423.9" fill="#FFFFFF" width="11.5" height="11.5"/>
	<rect x="-83.2" y="423.9" fill="#FFFFFF" width="11.5" height="11.5"/>
	<rect x="-56.1" y="423.9" fill="#FFFFFF" width="11.5" height="11.5"/>
	<rect x="-83.2" y="396.8" fill="#FFFFFF" width="11.5" height="11.5"/>
	<rect x="-96.8" y="382.8" fill="#FFFFFF" width="11.5" height="11.5"/>
	<rect x="-83.2" y="382.8" fill="#FFFFFF" width="11.5" height="11.5"/>
	<rect x="-83.2" y="369.9" fill="#FFFFFF" width="11.5" height="11.5"/>
	<rect x="-150.9" y="396.5" fill="#FFFFFF" width="11.5" height="11.5"/>
	<rect x="-150.9" y="410.3" fill="#FFFFFF" width="11.5" height="11.5"/>
	<rect x="-69.8" y="396.5" fill="#FFFFFF" width="25.1" height="25.1"/>
	<rect x="-191.4" y="369.8" fill="#FFFFFF" width="11.5" height="11.5"/>
	<polygon fill="#FFFFFF" points="-112.5,396.8 -125.8,396.8 -137.3,396.8 -137.3,408.3 -137.3,421.6 -125.8,421.6 -125.8,408.3 
		-112.5,408.3 	"/>
	<g>
		<path fill="#FFFFFF" d="M-166.3,408v-4.5h-3c-1.8,0-8,0.5-12.8,4.5H-166.3z"/>
		<path fill="#FFFFFF" d="M-175.3,391.4c0.4-2.8,1.1-5.7,2-8.6h-18.1v16.5C-186.8,395.1-181.1,392.5-175.3,391.4z"/>
	</g>
	<path fill="#FFFFFF" d="M-18.8,451.6h-147.7c-14.5,0-31.5-7.7-31.5-29.6c0-19.9,14.8-26.9,25-28.3c2.1-22.6,23.8-51.3,62.8-51.3
		c35.4,0,49.9,26.5,53.7,35.4c0.6,0,1.2,0,1.9,0c6,0,14.3,1.2,19.9,6.8c7.5,7.5,9.4,14.8,9.7,19c8.3,2.3,20,9.1,20,23.1
		c0,19.3-12.7,24.4-13.3,24.6L-18.8,451.6z M-110.2,350.1c-38.6,0-55.3,31.2-55.3,47.1v3.8h-3.8c-2.1,0-21,1-21,21
		c0,5.1,1.7,21.9,23.9,21.9h146.1c1.9-1,7.9-5.3,7.9-17.2c0-13.3-16.1-16.2-16.8-16.3l-3.8-0.6l0.6-3.8c0-0.3,1-7.6-7.5-16.1
		c-4-4-10.8-4.6-14.5-4.6c-2.3,0-3.9,0.2-3.9,0.2l-3.2,0.5l-1-3.1C-63,381.7-73.5,350.1-110.2,350.1z"/>
	<path fill="#FFFFFF" d="M-163,403.4h-1.4v4.5h11.5v-11.4H-163c0,0.2,0,0.4,0,0.6V403.4z"/>
	<path fill="#FFFFFF" d="M-152.9,394.3v-11.5h-6.6c-1.8,4.1-2.9,8-3.3,11.5H-152.9z"/>
	<path fill="#FFFFFF" d="M-158.8,381.3h5.8v-9.1C-155.3,375.1-157.2,378.2-158.8,381.3z"/>
	<path fill="#FFFFFF" d="M-75.1,367.4c-2.2-2.4-4.9-4.8-8.1-7v7H-75.1z"/>
	<path fill="#FFFFFF" d="M-69.8,374.2v7h3.7C-66.8,379.4-68,376.9-69.8,374.2z"/>
	<path fill="#FFFFFF" d="M-69.8,394.3h11.5v-6.1l-5.1,0.7l-1.6-5.2c0-0.1-0.1-0.4-0.3-0.9h-4.4L-69.8,394.3L-69.8,394.3z"/>
	<path fill="#FFFFFF" d="M-44.8,389.9c-3.5-1.7-7.8-1.9-9.9-1.9c-0.6,0-1.1,0-1.6,0v6.3h11.5V389.9z"/>
	<path fill="#FFFFFF" d="M-42.4,408.3h7l0.5-2.7c0-0.1,0.4-3.8-2.8-8.8h-4.7V408.3z"/>
	<polygon fill="#FFFFFF" points="-42.4,410.2 -42.4,421.7 -31,421.7 -31,412.8 -36.1,411.9 -35.8,410.2 	"/>
	<rect x="-42.4" y="437.6" fill="#FFFFFF" width="11.5" height="3.8"/>
	<rect x="-83.2" y="437.6" fill="#FFFFFF" width="24.6" height="3.8"/>
	<rect x="-123.9" y="437.3" fill="#FFFFFF" width="11.5" height="4"/>
	<rect x="-164.4" y="437.6" fill="#FFFFFF" width="24.6" height="3.8"/>
	<path fill="#FFFFFF" d="M-178,437.3v1.8c2.9,1.4,6.6,2.3,11.5,2.3v-4L-178,437.3L-178,437.3z"/>
	<path fill="#FFFFFF" d="M-180,423.8h-7.8c0.2,3.3,1.2,7.8,4.5,11.5h3.3V423.8z"/>
	<path fill="#FFFFFF" d="M-180,410.2h-4.3c-2.1,2.6-3.5,6.3-3.6,11.5h7.8L-180,410.2L-180,410.2z"/>
</g>
</svg>
