<?xml version="1.0" encoding="utf-8"?>
<!-- Generator: Adobe Illustrator 18.1.1, SVG Export Plug-In . SVG Version: 6.00 Build 0)  -->
<!DOCTYPE svg PUBLIC "-//W3C//DTD SVG 1.1//EN" "http://www.w3.org/Graphics/SVG/1.1/DTD/svg11.dtd">
<svg version="1.1" id="Layer_1" xmlns="http://www.w3.org/2000/svg" xmlns:xlink="http://www.w3.org/1999/xlink" x="0px" y="0px"
	 width="200px" height="200px" viewBox="-1267 297 200 200" enable-background="new -1267 297 200 200" xml:space="preserve">
<path fill="#05AED1" d="M-1097.3,374.4c-3-28.5-27.1-50.7-56.3-50.7c-28.2,0-51.4,20.4-55.9,47.3c-2.5-0.4-4.9-0.6-7.5-0.6
	c-27.6,0-50,22.4-50,50s22.4,50,50,50h100c27.6,0,50-22.4,50-50C-1067,399.7-1079.5,382-1097.3,374.4z M-1117,460.3h-100
	c-22.1,0-40-17.9-40-40c0-22.1,17.9-40,40-40c1.8,0,3.7,0.2,6,0.5l9.7,1.5l1.6-9.7c3.8-22.6,23.1-38.9,46-38.9
	c24,0,43.9,17.9,46.4,41.7l0.6,5.8l5.4,2.3c14.7,6.3,24.3,20.8,24.3,36.8C-1077,442.4-1094.9,460.3-1117,460.3z"/>
</svg>
