<?xml version="1.0" encoding="utf-8"?>
<!-- Generator: Adobe Illustrator 18.1.1, SVG Export Plug-In . SVG Version: 6.00 Build 0)  -->
<!DOCTYPE svg PUBLIC "-//W3C//DTD SVG 1.1//EN" "http://www.w3.org/Graphics/SVG/1.1/DTD/svg11.dtd">
<svg version="1.1" id="Layer_1" xmlns="http://www.w3.org/2000/svg" xmlns:xlink="http://www.w3.org/1999/xlink" x="0px" y="0px"
	 width="200px" height="200px" viewBox="-1267 297 200 200" enable-background="new -1267 297 200 200" xml:space="preserve">
<g>
	<g>
		<g>
			<rect x="-1236.9" y="313.6" fill="#89C541" width="70" height="70"/>
			<rect x="-1236.9" y="392" fill="#0BAED1" width="70" height="70"/>
			<rect x="-1158.2" y="313.6" fill="#0BAED1" width="70" height="70"/>
			<rect x="-1158.2" y="392" fill="#0A4369" width="70" height="70"/>
			<g>
				<rect x="-1225.9" y="323" fill="#FFFFFF" width="4.2" height="51.1"/>
				<rect x="-1181.3" y="323" fill="#FFFFFF" width="4.2" height="51.1"/>
				<rect x="-1196" y="323" fill="#FFFFFF" width="4.2" height="51.1"/>
				<rect x="-1211" y="323" fill="#FFFFFF" width="4.2" height="51.1"/>
			</g>
			<g>
				<rect x="-1147.4" y="323" fill="#FFFFFF" width="4.2" height="51.1"/>
				<rect x="-1102.9" y="323" fill="#FFFFFF" width="4.2" height="51.1"/>
				<rect x="-1117.8" y="323" fill="#FFFFFF" width="4.2" height="51.1"/>
				<rect x="-1132.7" y="323" fill="#FFFFFF" width="4.2" height="51.1"/>
			</g>
			<g>
				<rect x="-1225.9" y="401.7" fill="#FFFFFF" width="4.2" height="51.1"/>
				<rect x="-1181.3" y="401.7" fill="#FFFFFF" width="4.2" height="51.1"/>
				<rect x="-1196" y="401.7" fill="#FFFFFF" width="4.2" height="51.1"/>
				<rect x="-1211" y="401.7" fill="#FFFFFF" width="4.2" height="51.1"/>
			</g>
			<g>
				<rect x="-1147.4" y="401.7" fill="#FFFFFF" width="4.2" height="51.1"/>
				<rect x="-1102.9" y="401.7" fill="#FFFFFF" width="4.2" height="51.1"/>
				<rect x="-1117.8" y="401.7" fill="#FFFFFF" width="4.2" height="51.1"/>
				<rect x="-1132.7" y="401.7" fill="#FFFFFF" width="4.2" height="51.1"/>
			</g>
		</g>
		<polygon fill="#89C541" points="-1067,480.4 -1257.3,480.4 -1257.3,441.8 -1247.3,441.8 -1247.3,470.5 -1077,470.5 -1077,441.8 
			-1067,441.8 		"/>
	</g>
	<g>
		<rect x="-1267" y="359.4" fill="#FFFFFF" width="127" height="52.3"/>
		<polygon fill="#D1D3D4" points="-1236.9,424.9 -1257,424.9 -1267,411.7 -1236.9,411.7 		"/>
		<rect x="-1243.3" y="375.1" fill="none" width="87.2" height="30.6"/>
		<g enable-background="new    ">
			<path fill="#3B4B54" d="M-1239.4,375.1h9c4.3,0,6.9,0.9,6.9,5c0,2.4-1.5,4.6-4,5v0.1c2,0.6,3.2,2.3,3.2,4.3c0,4.6-3.9,7-8.2,7
				h-11.4L-1239.4,375.1z M-1238.6,392.8h5.9c2.1,0,3.7-1.2,3.7-3.4c0-2.2-2-2.4-3.7-2.4h-4.6L-1238.6,392.8z M-1236.7,383.8h5.3
				c1.7,0,3.2-0.9,3.2-2.8c0-1.6-0.9-2.2-2.5-2.2h-5L-1236.7,383.8z"/>
			<path fill="#3B4B54" d="M-1218.7,375.1h16.3l-0.8,3.9h-11.6l-0.9,4.6h10.7l-0.8,3.6h-10.8l-1.1,5.2h11.8l-0.8,3.9h-16.4
				L-1218.7,375.1z"/>
			<path fill="#3B4B54" d="M-1194.6,379.1h-6.7l0.8-3.9h17.8l-0.8,3.9h-6.4l-3.6,17.4h-4.7L-1194.6,379.1z"/>
			<path fill="#3B4B54" d="M-1177.4,375.1h4.8l3.6,21.3h-4.7l-0.7-4.7h-8l-2.7,4.7h-5L-1177.4,375.1z M-1180.5,388.2h5.7l-1.1-8.5
				h-0.1L-1180.5,388.2z"/>
		</g>
	</g>
</g>
</svg>
