<?xml version="1.0" encoding="utf-8"?>
<!-- Generator: Adobe Illustrator 18.1.1, SVG Export Plug-In . SVG Version: 6.00 Build 0)  -->
<!DOCTYPE svg PUBLIC "-//W3C//DTD SVG 1.1//EN" "http://www.w3.org/Graphics/SVG/1.1/DTD/svg11.dtd">
<svg version="1.1" id="Layer_1" xmlns="http://www.w3.org/2000/svg" xmlns:xlink="http://www.w3.org/1999/xlink" x="0px" y="0px"
	 width="64px" height="64px" viewBox="-1267 297 200 200" enable-background="new -1267 297 200 200" xml:space="preserve">
<g>
	<g>
		<rect x="-1245.3" y="309.4" fill="#89C541" width="73.6" height="73.6"/>
		<rect x="-1245.3" y="391.9" fill="#0BAED1" width="73.6" height="73.6"/>
		<rect x="-1162.8" y="309.4" fill="#0BAED1" width="73.6" height="73.6"/>
		<rect x="-1162.8" y="391.9" fill="#0A4369" width="73.6" height="73.6"/>
		<g>
			<rect x="-1233.8" y="319.4" fill="#FFFFFF" width="4.4" height="53.5"/>
			<rect x="-1187" y="319.4" fill="#FFFFFF" width="4.4" height="53.5"/>
			<rect x="-1202.6" y="319.4" fill="#FFFFFF" width="4.4" height="53.5"/>
			<rect x="-1218.2" y="319.4" fill="#FFFFFF" width="4.4" height="53.5"/>
		</g>
		<g>
			<rect x="-1151.7" y="319.4" fill="#FFFFFF" width="4.4" height="53.5"/>
			<rect x="-1104.8" y="319.4" fill="#FFFFFF" width="4.4" height="53.5"/>
			<rect x="-1120.5" y="319.4" fill="#FFFFFF" width="4.4" height="53.5"/>
			<rect x="-1136.1" y="319.4" fill="#FFFFFF" width="4.4" height="53.5"/>
		</g>
		<g>
			<rect x="-1233.8" y="401.9" fill="#FFFFFF" width="4.4" height="53.5"/>
			<rect x="-1187" y="401.9" fill="#FFFFFF" width="4.4" height="53.5"/>
			<rect x="-1202.6" y="401.9" fill="#FFFFFF" width="4.4" height="53.5"/>
			<rect x="-1218.2" y="401.9" fill="#FFFFFF" width="4.4" height="53.5"/>
		</g>
		<g>
			<rect x="-1151.7" y="401.9" fill="#FFFFFF" width="4.4" height="53.5"/>
			<rect x="-1104.8" y="401.9" fill="#FFFFFF" width="4.4" height="53.5"/>
			<rect x="-1120.5" y="401.9" fill="#FFFFFF" width="4.4" height="53.5"/>
			<rect x="-1136.1" y="401.9" fill="#FFFFFF" width="4.4" height="53.5"/>
		</g>
	</g>
	<polygon fill="#89C541" points="-1067,484.6 -1267,484.6 -1267,444.1 -1256.5,444.1 -1256.5,474.2 -1077.5,474.2 -1077.5,444.1 
		-1067,444.1 	"/>
</g>
</svg>
