<?xml version="1.0" encoding="utf-8"?>
<!-- Generator: Adobe Illustrator 18.1.1, SVG Export Plug-In . SVG Version: 6.00 Build 0)  -->
<!DOCTYPE svg PUBLIC "-//W3C//DTD SVG 1.1//EN" "http://www.w3.org/Graphics/SVG/1.1/DTD/svg11.dtd">
<svg version="1.1" id="Layer_1" xmlns="http://www.w3.org/2000/svg" xmlns:xlink="http://www.w3.org/1999/xlink" x="0px" y="0px"
	 width="64px" height="64px" viewBox="-1267 297 200 200" enable-background="new -1267 297 200 200" xml:space="preserve">
<g>
	<g>
		<g>
			<rect x="-1236.8" y="313.5" fill="#85C242" width="70" height="70"/>
			<rect x="-1236.8" y="392" fill="#03ABCD" width="70" height="70"/>
			<rect x="-1158.2" y="313.5" fill="#03ABCD" width="70" height="70"/>
			<rect x="-1158.2" y="392" fill="#06446A" width="70" height="70"/>
			<g>
				<rect x="-1225.8" y="323" fill="#FFFFFF" width="4.2" height="50.9"/>
				<rect x="-1181.2" y="323" fill="#FFFFFF" width="4.2" height="50.9"/>
				<rect x="-1196.1" y="323" fill="#FFFFFF" width="4.2" height="50.9"/>
				<rect x="-1211" y="323" fill="#FFFFFF" width="4.2" height="50.9"/>
			</g>
			<g>
				<rect x="-1147.6" y="323" fill="#FFFFFF" width="4.2" height="50.9"/>
				<rect x="-1103" y="323" fill="#FFFFFF" width="4.2" height="50.9"/>
				<rect x="-1117.9" y="323" fill="#FFFFFF" width="4.2" height="50.9"/>
				<rect x="-1132.7" y="323" fill="#FFFFFF" width="4.2" height="50.9"/>
			</g>
			<g>
				<rect x="-1225.8" y="401.6" fill="#FFFFFF" width="4.2" height="50.9"/>
				<rect x="-1181.2" y="401.6" fill="#FFFFFF" width="4.2" height="50.9"/>
				<rect x="-1196.1" y="401.6" fill="#FFFFFF" width="4.2" height="50.9"/>
				<rect x="-1211" y="401.6" fill="#FFFFFF" width="4.2" height="50.9"/>
			</g>
			<g>
				<rect x="-1147.6" y="401.6" fill="#FFFFFF" width="4.2" height="50.9"/>
				<rect x="-1103" y="401.6" fill="#FFFFFF" width="4.2" height="50.9"/>
				<rect x="-1117.9" y="401.6" fill="#FFFFFF" width="4.2" height="50.9"/>
				<rect x="-1132.7" y="401.6" fill="#FFFFFF" width="4.2" height="50.9"/>
			</g>
		</g>
		<polygon fill="#85C242" points="-1067,480.3 -1257.4,480.3 -1257.4,441.7 -1247.4,441.7 -1247.4,470.4 -1077,470.4 -1077,441.7 
			-1067,441.7 		"/>
	</g>
	<g>
		<rect x="-1267" y="359.4" fill="#3C4C55" width="126.9" height="52.2"/>
		<polygon fill="#161E23" points="-1236.8,424.7 -1257,424.7 -1267,411.6 -1236.8,411.6 		"/>
		<g>
			<path fill="#FFFFFF" d="M-1239.4,375h9c4.3,0,6.9,0.9,6.9,5c0,2.4-1.5,4.6-4,5l0,0c2,0.6,3.2,2.3,3.2,4.3c0,4.6-3.9,7-8.2,7
				h-11.4L-1239.4,375z M-1238.6,392.7h5.9c2.1,0,3.7-1.2,3.7-3.4c0-2.2-2-2.4-3.7-2.4h-4.6L-1238.6,392.7z M-1236.7,383.7h5.3
				c1.7,0,3.2-0.9,3.2-2.8c0-1.6-1-2.2-2.5-2.2h-5L-1236.7,383.7z"/>
			<path fill="#FFFFFF" d="M-1218.7,375h16.3l-0.9,4h-11.5l-1,4.6h10.7l-0.8,3.6h-10.7l-1.1,5.2h11.8l-0.8,3.9h-16.5L-1218.7,375z"
				/>
			<path fill="#FFFFFF" d="M-1194.6,379h-6.7l0.8-3.9h17.8l-0.8,3.9h-6.4l-3.6,17.4h-4.7L-1194.6,379z"/>
			<path fill="#FFFFFF" d="M-1177.5,375h4.8l3.6,21.3h-4.7l-0.7-4.7h-8l-2.7,4.7h-5L-1177.5,375z M-1180.6,388.1h5.7l-1-8.5h-0.1
				L-1180.6,388.1z"/>
		</g>
	</g>
</g>
</svg>
