<?xml version="1.0" encoding="utf-8"?>
<!-- Generator: Adobe Illustrator 18.1.1, SVG Export Plug-In . SVG Version: 6.00 Build 0)  -->
<!DOCTYPE svg PUBLIC "-//W3C//DTD SVG 1.1//EN" "http://www.w3.org/Graphics/SVG/1.1/DTD/svg11.dtd">
<svg version="1.1" id="Layer_1" xmlns="http://www.w3.org/2000/svg" xmlns:xlink="http://www.w3.org/1999/xlink" x="0px" y="0px"
	 width="200px" height="200px" viewBox="-1267 297 200 200" enable-background="new -1267 297 200 200" xml:space="preserve">
<g>
	<path fill="#26AEE5" d="M-1067.5,297h-199c-0.3,0-0.5,0.2-0.5,0.5v199.1c0,0.2,0.2,0.5,0.5,0.5h199.1c0.2,0,0.5-0.2,0.5-0.5V297.5
		C-1067,297.2-1067.2,297-1067.5,297z"/>
	<g>
		<path fill="#FFFFFF" d="M-1096.8,458.9h-140.4v-29.7h8.8v20.9h122.9v-20.9h8.8v29.7H-1096.8z M-1235.7,457.4h137.5v-26.6h-5.8
			v20.9h-126v-20.9h-5.8v26.6H-1235.7z"/>
		<g>
			<path fill="#FFFFFF" d="M-1169,388.8h-53.7v-53.7h53.7V388.8z M-1220.1,386.2h48.5v-48.5h-48.5V386.2z"/>
			<rect x="-1213.4" y="343.4" fill="#FFFFFF" width="3.1" height="37.2"/>
			<rect x="-1202.6" y="343.4" fill="#FFFFFF" width="3.1" height="37.2"/>
			<rect x="-1191.7" y="343.4" fill="#FFFFFF" width="3.1" height="37.2"/>
			<rect x="-1180.9" y="343.4" fill="#FFFFFF" width="3.1" height="37.2"/>
		</g>
		<g>
			<path fill="#FFFFFF" d="M-1111.7,388.8h-53.7v-53.7h53.7V388.8z M-1162.8,386.2h48.5v-48.5h-48.5V386.2z"/>
			<rect x="-1156.1" y="343.4" fill="#FFFFFF" width="3.1" height="37.2"/>
			<rect x="-1145.3" y="343.4" fill="#FFFFFF" width="3.1" height="37.2"/>
			<rect x="-1134.4" y="343.4" fill="#FFFFFF" width="3.1" height="37.2"/>
			<rect x="-1123.6" y="343.4" fill="#FFFFFF" width="3.1" height="37.2"/>
		</g>
		<g>
			<path fill="#FFFFFF" d="M-1169,446.2h-53.7v-53.8h53.7V446.2z M-1220.1,443.6h48.5V395h-48.5V443.6z"/>
			<rect x="-1213.4" y="400.7" fill="#FFFFFF" width="3.1" height="37.2"/>
			<rect x="-1202.6" y="400.7" fill="#FFFFFF" width="3.1" height="37.2"/>
			<rect x="-1191.7" y="400.7" fill="#FFFFFF" width="3.1" height="37.2"/>
			<rect x="-1180.9" y="400.7" fill="#FFFFFF" width="3.1" height="37.2"/>
		</g>
		<g>
			<path fill="#FFFFFF" d="M-1111.7,446.2h-53.7v-53.8h53.7V446.2z M-1162.8,443.6h48.5V395h-48.5V443.6z"/>
			<rect x="-1156.1" y="400.7" fill="#FFFFFF" width="3.1" height="37.2"/>
			<rect x="-1145.3" y="400.7" fill="#FFFFFF" width="3.1" height="37.2"/>
			<rect x="-1134.4" y="400.7" fill="#FFFFFF" width="3.1" height="37.2"/>
			<rect x="-1123.6" y="400.7" fill="#FFFFFF" width="3.1" height="37.2"/>
		</g>
	</g>
</g>
</svg>
