<?xml version="1.0" encoding="utf-8"?>
<!-- Generator: Adobe Illustrator 18.1.1, SVG Export Plug-In . SVG Version: 6.00 Build 0)  -->
<!DOCTYPE svg PUBLIC "-//W3C//DTD SVG 1.1//EN" "http://www.w3.org/Graphics/SVG/1.1/DTD/svg11.dtd">
<svg version="1.1" id="Layer_1" xmlns="http://www.w3.org/2000/svg" xmlns:xlink="http://www.w3.org/1999/xlink" x="0px" y="0px"
	 width="64px" height="64px" viewBox="-1267 297 200 200" enable-background="new -1267 297 200 200" xml:space="preserve">
<g>
	<polygon fill="#25343E" points="-1067,486.8 -1267,486.8 -1267,446.3 -1256.5,446.3 -1256.5,476.4 -1077.5,476.4 -1077.5,446.3 
		-1067,446.3 	"/>
	<g>
		<path fill="#AA2285" d="M-1246.4,307.2v76.1h76.1v-76.1H-1246.4z M-1229.8,372.9h-4.6v-55.4h4.6V372.9z M-1213.7,372.9h-4.6v-55.4
			h4.6V372.9z M-1197.5,372.9h-4.6v-55.4h4.6V372.9z M-1181.4,372.9h-4.6v-55.4h4.6V372.9z"/>
		<path fill="#AA2285" d="M-1161.9,391.6v76.1h76.1v-76.1H-1161.9z M-1145.4,457.3h-4.6v-55.4h4.6V457.3z M-1129.3,457.3h-4.6v-55.4
			h4.6V457.3z M-1113.1,457.3h-4.6v-55.4h4.6V457.3z M-1097,457.3h-4.6v-55.4h4.6V457.3z"/>
		<path fill="#AA2285" d="M-1246.4,391.6v76.1h76.1v-76.1H-1246.4z M-1229.8,457.3h-4.6v-55.4h4.6V457.3z M-1213.7,457.3h-4.6v-55.4
			h4.6V457.3z M-1197.5,457.3h-4.6v-55.4h4.6V457.3z M-1181.4,457.3h-4.6v-55.4h4.6V457.3z"/>
		<path fill="#AA2285" d="M-1161.9,307.2v76.1h76.1v-76.1H-1161.9z M-1145.4,372.9h-4.6v-55.4h4.6V372.9z M-1129.3,372.9h-4.6v-55.4
			h4.6V372.9z M-1113.1,372.9h-4.6v-55.4h4.6V372.9z M-1097,372.9h-4.6v-55.4h4.6V372.9z"/>
	</g>
</g>
</svg>
