<?xml version="1.0" encoding="utf-8"?>
<!-- Generator: Adobe Illustrator 18.1.1, SVG Export Plug-In . SVG Version: 6.00 Build 0)  -->
<!DOCTYPE svg PUBLIC "-//W3C//DTD SVG 1.1//EN" "http://www.w3.org/Graphics/SVG/1.1/DTD/svg11.dtd">
<svg version="1.1" id="Layer_1" xmlns="http://www.w3.org/2000/svg" xmlns:xlink="http://www.w3.org/1999/xlink" x="0px" y="0px"
	 width="200px" height="200px" viewBox="-1267 297 200 200" enable-background="new -1267 297 200 200" xml:space="preserve">
<g>
	<polygon fill="#28AFE5" points="-1067,484.6 -1267,484.6 -1267,444.1 -1256.5,444.1 -1256.5,474.2 -1077.5,474.2 -1077.5,444.1 
		-1067,444.1 	"/>
	<path fill="#28AFE5" d="M-1245.3,309.4V383h73.6v-73.6H-1245.3z M-1229.4,372.9h-4.4v-53.5h4.4V372.9z M-1213.8,372.9h-4.4v-53.5
		h4.4V372.9z M-1198.1,372.9h-4.4v-53.5h4.4V372.9z M-1182.6,372.9h-4.4v-53.5h4.4V372.9z"/>
	<path fill="#28AFE5" d="M-1162.8,309.4V383h73.6v-73.6H-1162.8z M-1146.9,372.9h-4.4v-53.5h4.4V372.9z M-1131.3,372.9h-4.4v-53.5
		h4.4V372.9z M-1115.6,372.9h-4.4v-53.5h4.4V372.9z M-1100.1,372.9h-4.4v-53.5h4.4V372.9z"/>
	<path fill="#28AFE5" d="M-1245.3,391.9v73.6h73.6v-73.6H-1245.3z M-1229.4,455.4h-4.4v-53.5h4.4V455.4z M-1213.8,455.4h-4.4v-53.5
		h4.4V455.4z M-1198.1,455.4h-4.4v-53.5h4.4V455.4z M-1182.6,455.4h-4.4v-53.5h4.4V455.4z"/>
	<path fill="#28AFE5" d="M-1162.8,391.9v73.6h73.6v-73.6H-1162.8z M-1146.9,455.4h-4.4v-53.5h4.4V455.4z M-1131.3,455.4h-4.4v-53.5
		h4.4V455.4z M-1115.6,455.4h-4.4v-53.5h4.4V455.4z M-1100.1,455.4h-4.4v-53.5h4.4V455.4z"/>
</g>
</svg>
