<?xml version="1.0" encoding="utf-8"?>
<!-- Generator: Adobe Illustrator 18.1.1, SVG Export Plug-In . SVG Version: 6.00 Build 0)  -->
<!DOCTYPE svg PUBLIC "-//W3C//DTD SVG 1.1//EN" "http://www.w3.org/Graphics/SVG/1.1/DTD/svg11.dtd">
<svg version="1.1" id="Layer_1" xmlns="http://www.w3.org/2000/svg" xmlns:xlink="http://www.w3.org/1999/xlink" x="0px" y="0px"
	 width="200px" height="200px" viewBox="-1267 297 200 200" enable-background="new -1267 297 200 200" xml:space="preserve">
<g>
	<path fill="#ED4F3E" d="M-1167,471.5c-41.9,0-76-34.1-76-76c0-41.9,34.1-76,76-76s76,34.1,76,76
		C-1091,437.4-1125.1,471.5-1167,471.5z M-1167,343.5c-28.7,0-52,23.3-52,52c0,28.7,23.3,52,52,52s52-23.3,52-52
		C-1115,366.8-1138.3,343.5-1167,343.5z"/>
	
		<rect x="-1232.1" y="385" transform="matrix(0.7071 0.7071 -0.7071 0.7071 -61.009 941.2875)" fill="#ED4F3E" width="130.7" height="24"/>
	<path fill="#ED4F3E" d="M-1167,497c-55.1,0-100-44.9-100-100c0-55.1,44.9-100,100-100s100,44.9,100,100
		C-1067,452.1-1111.9,497-1167,497z M-1167,305c-50.7,0-92,41.3-92,92c0,50.7,41.3,92,92,92s92-41.3,92-92
		C-1075,346.3-1116.3,305-1167,305z"/>
</g>
</svg>
