<?xml version="1.0" encoding="UTF-8" standalone="no"?>
<svg width="101px" height="86px" viewBox="0 0 101 86" version="1.1" xmlns="http://www.w3.org/2000/svg" xmlns:xlink="http://www.w3.org/1999/xlink" xmlns:sketch="http://www.bohemiancoding.com/sketch/ns">
    <!-- Generator: Sketch 3.3.2 (12043) - http://www.bohemiancoding.com/sketch -->
    <title>Slice 1</title>
    <desc>Created with Sketch.</desc>
    <defs></defs>
    <g id="Page-1" stroke="none" stroke-width="1" fill="none" fill-rule="evenodd" sketch:type="MSPage">
        <g id="noun_16640" sketch:type="MSLayerGroup" transform="translate(-191.000000, -44.000000)" fill="#000000">
            <g id="Your_Icon" transform="translate(192.000000, 49.000000)" sketch:type="MSShapeGroup">
                <g id="Group">
                    <path id="Shape" d="M44.063,7.895 L44.062,7.897 L44.064,7.897 L44.063,7.895 Z"></path>
                    <path d="M98.85,43.921 C98.808,43.332 98.18,42.964 97.598,43.068 C97.558,43.079 93.705,43.749 89.562,39.287 C87.573,37.144 87.118,34.252 86.636,31.188 C86.091,27.73 85.529,24.156 82.572,21.768 C80.426,20.034 77.566,20.283 74.808,21.29 C74.748,21.234 74.683,21.181 74.622,21.126 C74.002,18.053 72.812,15.489 70.419,14.546 C68.199,13.67 65.541,14.463 62.353,16.954 C61.787,15.333 61.056,14.153 60.302,13.298 C61.02,10.051 60.984,10.381 61.291,8.949 C61.626,7.378 62.155,6.949 62.402,6.518 C63.16,5.902 63.588,4.978 63.588,3.951 C63.588,2.057 62.045,0.523 60.142,0.523 C58.237,0.523 56.695,2.058 56.695,3.951 C56.695,5.457 57.413,5.997 58.178,6.663 C58.547,6.925 58.608,7.71 58.657,8.376 C58.693,8.872 58.485,10.152 58.115,11.579 C56.948,10.992 55.709,10.81 54.671,11.109 L54.453,11.171 C53.99,11.302 53.58,11.438 53.212,11.614 C52.716,9.103 52.116,7.871 51.261,7.282 C50.733,6.92 50.124,6.762 49.501,6.942 C47.662,7.472 46.356,8.446 45.719,11.791 C45.396,11.787 44.969,11.806 44.712,11.845 C44.739,11.814 44.686,11.778 44.674,11.753 C44.686,11.789 44.736,11.815 44.707,11.846 C44.577,11.867 44.515,11.887 44.405,11.918 C44.259,11.96 44.145,12.005 43.998,12.053 C42.978,8.854 42.612,7.326 42.812,5.84 C42.816,5.804 42.801,5.775 42.793,5.741 C42.648,3.982 41.186,2.593 39.378,2.593 C37.473,2.593 35.932,4.403 35.932,6.296 C35.932,8.189 37.478,10 39.382,10 L39.389,10 C39.815,10 40.333,10.535 40.748,11.356 C41.739,13.322 41.648,12.898 41.774,13.248 C40.77,13.914 39.863,14.812 39.197,16.291 C36.647,15.088 33.643,14.299 31.325,15.713 C30.116,16.451 29.296,17.618 28.848,19.258 C27.295,20.303 26.425,22.129 26.214,24.789 C23.485,23.73 22.396,23.831 21.638,24.432 C20.531,25.31 20.901,26.809 21.329,28.548 C22.053,31.489 22.41,33.853 19.945,35.305 C19.435,35.605 19.265,36.262 19.567,36.771 C19.766,37.11 20.123,37.297 20.49,37.297 C20.675,37.297 20.862,37.25 21.033,37.149 C22.421,36.331 23.259,35.336 23.759,34.289 C23.766,34.325 23.771,34.362 23.778,34.398 C23.812,34.568 23.845,34.737 23.869,34.906 C23.894,35.08 23.911,35.255 23.927,35.43 C23.961,35.807 23.997,36.197 24.112,36.584 C24.229,36.98 24.412,37.328 24.59,37.666 C24.67,37.818 24.75,37.971 24.821,38.124 C24.893,38.283 24.959,38.445 25.024,38.607 C25.165,38.959 25.311,39.322 25.533,39.666 C25.755,40.007 26.027,40.287 26.289,40.557 C26.412,40.683 26.534,40.81 26.649,40.94 C26.764,41.073 26.873,41.211 26.982,41.351 C27.215,41.645 27.456,41.953 27.764,42.216 C27.968,42.392 28.186,42.532 28.407,42.664 C26.91,43.753 25.168,44.371 23.347,43.692 C20.385,42.588 19.071,40.887 17.548,38.918 C16.166,37.13 14.599,35.102 11.61,33.473 C6.29,30.574 2.637,32.634 1.449,34.13 C1.425,34.16 1.419,34.197 1.398,34.23 C1.132,34.552 0.991,34.805 0.957,34.869 C0.684,35.388 0.882,36.023 1.397,36.303 C1.911,36.584 2.56,36.39 2.846,35.879 C3.017,35.57 4.668,32.946 9.436,35.547 C12.028,36.961 13.457,38.982 14.97,41.122 C16.699,43.567 18.486,46.097 22.025,47.416 C22.932,47.753 23.873,47.899 24.826,47.899 C27.673,47.899 30.606,46.589 32.957,45.171 C32.755,45.669 32.583,46.192 32.47,46.753 C32.453,46.815 32.42,46.885 32.386,46.968 C32.045,47.796 31.447,49.251 32.441,51.935 C29.07,54.289 27.075,57.121 26.529,60.355 C25.675,65.415 28.696,69.542 28.825,69.715 C28.833,69.725 28.846,69.729 28.854,69.738 C28.947,69.855 29.059,69.948 29.187,70.014 C29.21,70.027 29.234,70.035 29.258,70.045 C29.393,70.104 29.536,70.145 29.686,70.145 C29.691,70.145 29.697,70.141 29.702,70.141 C29.838,70.139 29.971,70.103 30.099,70.048 C30.119,70.038 30.14,70.043 30.159,70.033 C30.185,70.02 30.2,69.998 30.224,69.983 C30.255,69.964 30.29,69.955 30.321,69.932 C30.352,69.91 30.368,69.875 30.396,69.85 C30.453,69.797 30.503,69.744 30.547,69.683 C30.584,69.629 30.614,69.577 30.641,69.519 C30.671,69.452 30.696,69.387 30.712,69.314 C30.727,69.252 30.734,69.191 30.738,69.126 C30.741,69.055 30.739,68.985 30.729,68.913 C30.718,68.845 30.699,68.781 30.676,68.716 C30.662,68.677 30.664,68.636 30.645,68.598 C30.601,68.507 26.266,59.6 31.116,56.554 C32.014,55.99 32.94,55.391 33.87,54.773 C34.038,55.047 34.228,55.335 34.424,55.627 C35.688,57.896 37.325,59.709 38.315,60.692 C38.562,60.937 38.551,61.076 38.546,61.122 C38.54,61.195 38.509,61.277 38.465,61.361 C38.295,61.635 38.022,61.921 37.806,62.082 C37.747,62.124 37.712,62.185 37.666,62.235 C37.619,62.286 37.563,62.327 37.529,62.384 C37.491,62.444 37.477,62.513 37.452,62.578 C37.428,62.64 37.395,62.7 37.384,62.766 C37.372,62.833 37.384,62.903 37.386,62.971 C37.387,63.04 37.379,63.107 37.393,63.175 C37.408,63.244 37.448,63.305 37.477,63.372 C37.503,63.432 37.515,63.496 37.555,63.554 C37.557,63.558 37.562,63.559 37.564,63.562 C37.567,63.567 37.567,63.573 37.571,63.577 C37.639,63.673 37.736,63.728 37.826,63.794 C37.871,63.826 37.904,63.876 37.953,63.9 C38.104,63.977 38.269,64.017 38.437,64.017 C38.544,64.017 38.651,64 38.756,63.966 C38.791,63.956 38.822,63.934 38.857,63.918 C38.919,63.891 38.984,63.868 39.044,63.827 C39.047,63.825 39.058,63.816 39.062,63.813 C39.064,63.812 39.065,63.812 39.067,63.811 C39.071,63.808 39.087,63.795 39.094,63.79 C39.258,63.673 39.767,63.277 40.172,62.668 C40.457,62.257 40.701,61.758 40.755,61.195 C40.826,60.47 40.582,59.78 40.048,59.203 C38.378,57.394 37.17,55.873 36.281,54.575 C36.086,54.225 35.899,53.866 35.731,53.494 C37.164,52.483 38.594,51.387 39.985,50.18 C40.012,54.558 41.574,60.558 46.903,68.251 C47.111,68.552 47.445,68.713 47.785,68.713 C47.995,68.713 48.207,68.651 48.393,68.523 C48.88,68.185 49.001,67.518 48.664,67.032 C42.629,58.32 41.72,52.079 42.237,48.093 C42.786,47.541 43.32,46.962 43.843,46.364 C43.252,49.431 42.997,52.529 43.869,54.153 C44.647,55.604 45.801,56.723 46.916,57.802 C48.197,59.045 49.407,60.217 50.155,61.892 C50.333,62.289 50.724,62.526 51.134,62.526 C51.28,62.526 51.429,62.497 51.571,62.433 C52.111,62.191 52.353,61.558 52.112,61.017 C51.195,58.966 49.714,57.532 48.407,56.264 C47.364,55.253 46.378,54.297 45.758,53.141 C45.175,52.054 45.423,49.433 46.003,46.546 C46.139,46.965 46.307,47.36 46.51,47.721 C47.391,49.288 48.79,50.275 50.426,50.595 C50.361,52.014 50.534,53.386 50.854,54.667 C50.964,55.509 51.151,56.329 51.456,57.112 C53.252,61.714 58.068,64.032 65.785,64.032 C66.232,64.032 66.692,63.996 67.16,63.996 L67.169,63.996 L67.171,63.996 L67.204,63.996 C67.253,63.996 67.292,63.982 67.339,63.974 C67.426,63.958 67.514,63.953 67.593,63.919 C67.648,63.896 67.692,63.859 67.743,63.825 C67.804,63.784 67.868,63.75 67.922,63.695 C67.966,63.652 67.994,63.597 68.03,63.547 C68.072,63.487 68.116,63.434 68.143,63.366 C68.17,63.307 68.177,63.244 68.192,63.18 C68.206,63.122 68.233,63.07 68.236,63.01 C68.237,62.992 68.228,62.977 68.228,62.958 C68.228,62.94 68.238,62.926 68.237,62.908 C68.235,62.852 68.211,62.804 68.2,62.752 C68.186,62.68 68.178,62.609 68.151,62.543 C68.12,62.467 68.074,62.401 68.028,62.335 C67.999,62.294 67.976,62.25 67.941,62.213 C67.866,62.131 67.778,62.07 67.683,62.015 C67.662,62.004 67.647,61.992 67.627,61.98 C67.533,61.935 67.431,61.914 67.324,61.902 C67.291,61.896 67.264,61.879 67.231,61.876 L66.927,61.859 C64.332,61.704 57.435,61.296 55.195,58.748 C54.28,57.708 53.461,56.184 52.979,54.421 C52.951,54.2 52.916,53.984 52.902,53.754 C52.831,52.692 52.928,51.609 53.127,50.531 C53.189,50.517 53.252,50.51 53.316,50.495 C54.878,50.095 56.042,49.02 56.686,47.501 C59.241,55.401 65.698,56.369 69.868,56.994 C71.593,57.254 73.377,57.519 73.755,58.175 C73.954,58.522 73.869,59.193 73.508,60.111 C70.735,67.156 71.376,67.817 79.158,72.788 L79.673,73.116 C79.852,73.23 80.051,73.284 80.248,73.284 C80.602,73.284 80.947,73.109 81.152,72.79 C81.469,72.292 81.325,71.63 80.825,71.311 C73.71,66.763 73.849,66.409 76.188,60.482 L76.363,60.038 C76.993,58.438 77.024,57.205 76.459,56.27 C75.554,54.773 73.471,54.549 71.06,54.289 C66.531,53.802 61.062,53.207 59.229,45.509 C61.231,47.053 64.323,48.543 69.111,49.555 C69.751,49.691 70.417,49.786 71.107,49.885 C75.47,50.507 80.414,51.213 86.169,64.083 C86.347,64.481 86.738,64.717 87.148,64.717 C87.294,64.717 87.443,64.688 87.585,64.623 C88.125,64.382 88.367,63.748 88.126,63.208 C81.634,48.692 75.978,47.671 71.433,46.851 C70.992,46.771 70.557,46.693 70.13,46.603 C65.959,45.721 63.558,44.507 62.175,43.341 C62.222,43.354 62.27,43.363 62.316,43.377 C62.481,43.424 62.643,43.481 62.808,43.538 C63.16,43.661 63.523,43.789 63.925,43.846 C64.295,43.898 64.678,43.879 65.064,43.86 C65.42,43.841 65.777,43.841 66.133,43.86 C66.327,43.871 66.522,43.881 66.713,43.881 C66.901,43.881 67.088,43.872 67.274,43.847 C67.586,43.803 67.871,43.713 68.149,43.619 C68.251,43.742 68.342,43.871 68.452,43.989 C70.879,46.602 73.304,47.398 75.218,47.398 C76.552,47.398 77.636,47.011 78.294,46.584 C78.325,46.563 78.344,46.531 78.371,46.508 C78.73,46.284 78.945,46.089 78.999,46.038 C79.428,45.63 79.442,44.952 79.034,44.523 C78.627,44.095 77.949,44.081 77.519,44.488 C77.512,44.495 76.669,45.197 75.431,45.165 C74.077,45.125 72.643,44.299 71.17,42.715 C71.134,42.674 71.104,42.625 71.067,42.583 C71.206,42.491 71.341,42.397 71.474,42.302 C71.615,42.2 71.755,42.101 71.901,42.007 C72.047,41.914 72.201,41.827 72.353,41.74 C72.675,41.557 73.009,41.369 73.313,41.109 C73.551,40.905 73.745,40.673 73.93,40.442 C74.119,40.38 74.304,40.316 74.485,40.254 C76.213,39.668 77.842,39.113 78.484,39.523 C78.825,39.74 79.06,40.374 79.166,41.356 C79.972,48.877 80.848,49.168 90.052,50.013 L90.662,50.07 C90.694,50.073 90.728,50.074 90.761,50.074 C91.308,50.074 91.776,49.656 91.826,49.101 C91.881,48.511 91.446,47.99 90.858,47.935 C82.427,47.16 82.386,46.781 81.714,40.449 L81.663,39.974 C81.479,38.265 80.937,37.158 80.005,36.588 C79.38,36.208 78.672,36.128 77.9,36.215 C80.147,34.73 80.791,32.958 80.86,31.55 C80.986,28.971 79.273,26.479 77.179,24.611 C77.167,24.58 77.149,24.549 77.135,24.519 C77.404,24.423 77.667,24.345 77.927,24.303 C78.764,24.168 79.484,24.356 80.129,24.877 C82.458,26.756 82.894,29.251 83.399,32.138 C83.876,34.863 84.417,37.951 86.839,40.561 C91.296,45.361 96.156,45.614 97.131,45.614 C97.222,45.614 97.28,45.614 97.299,45.61 C97.835,45.523 98.153,45.457 98.37,45.239 C98.691,44.923 98.893,44.521 98.85,43.921 L98.85,43.921 Z M38.529,6.669 C38.207,6.669 37.946,6.374 37.946,6.011 C37.946,5.647 38.207,5.352 38.529,5.352 C38.852,5.352 39.113,5.647 39.113,6.011 C39.113,6.375 38.852,6.669 38.529,6.669 L38.529,6.669 Z M25.026,27.847 C24.961,28.01 24.895,28.172 24.823,28.33 C24.751,28.485 24.671,28.638 24.59,28.791 C24.519,28.926 24.449,29.065 24.381,29.206 C24.38,29.192 24.38,29.177 24.379,29.164 C24.336,28.518 24.27,27.541 24.391,27.346 C24.493,27.292 24.727,27.257 25.233,27.356 C25.158,27.521 25.091,27.686 25.026,27.847 L25.026,27.847 Z M29.142,44.748 C29.316,44.635 29.489,44.519 29.657,44.396 C29.69,44.421 29.718,44.448 29.753,44.471 C29.551,44.567 29.348,44.659 29.142,44.748 L29.142,44.748 Z M32.747,21.778 C32.582,21.835 32.418,21.893 32.252,21.941 C32.083,21.99 31.91,22.031 31.737,22.071 C31.717,22.076 31.697,22.082 31.677,22.087 C31.683,21.914 31.691,21.742 31.704,21.579 C32.099,21.549 32.542,21.579 33.04,21.682 C32.943,21.714 32.843,21.745 32.747,21.778 L32.747,21.778 Z M33.008,18.417 C33.912,17.869 35.562,18.116 37.544,19.003 C37.26,19.175 36.992,19.365 36.733,19.57 C35.546,19.022 34.268,18.585 33.008,18.417 L33.008,18.417 Z M39.255,45.025 C37.966,47.062 37.13,48.375 34.814,50.208 C34.764,49.648 34.771,49.082 34.849,48.516 C35.02,47.274 35.543,46.108 36.38,45.014 C36.485,45.019 36.591,45.026 36.694,45.026 C36.888,45.026 37.079,45.015 37.268,44.989 C37.676,44.931 38.045,44.802 38.402,44.678 C38.567,44.62 38.73,44.564 38.896,44.516 C39.066,44.466 39.239,44.426 39.412,44.385 C39.51,44.363 39.61,44.334 39.708,44.311 C39.552,44.556 39.4,44.795 39.255,45.025 L39.255,45.025 Z M42.827,17.602 C42.473,17.626 42.14,17.654 41.828,17.683 C41.593,17.533 41.347,17.381 41.09,17.229 C41.47,16.337 41.952,15.704 42.493,15.238 C42.667,15.825 42.823,16.426 42.841,16.723 C42.871,17.203 42.854,17.454 42.827,17.602 L42.827,17.602 Z M45.33,15.615 C45.001,15.064 44.821,14.608 44.663,14.101 C44.797,14.058 44.932,14.017 45.067,13.978 C45.169,13.948 45.294,13.93 45.435,13.917 C45.388,14.437 45.355,15.011 45.33,15.615 L45.33,15.615 Z M50.041,8.986 C50.551,9.272 50.972,11.008 51.306,13.116 C50.119,12.627 48.929,12.264 47.853,12.044 C48.402,9.338 49.356,9.205 50.041,8.986 L50.041,8.986 Z M47.435,16.861 C47.455,15.823 47.498,14.919 47.566,14.147 C48.532,14.358 49.647,14.709 50.763,15.191 C50.659,15.545 50.557,15.939 50.456,16.365 C49.528,16.427 48.362,16.644 47.435,16.861 L47.435,16.861 Z M50.697,48.465 C49.727,48.232 48.913,47.624 48.379,46.674 C47.939,45.893 47.723,44.893 47.811,43.785 C48.116,44.375 48.458,44.804 48.763,45.098 C49.504,45.815 50.451,46.207 51.39,46.229 C51.067,47.018 50.846,47.77 50.697,48.465 L50.697,48.465 Z M51.804,44.052 C51.412,44.162 50.803,44.092 50.253,43.56 C49.987,43.302 49.595,42.788 49.346,41.848 C49.808,41.816 50.265,41.754 50.716,41.644 C50.909,41.666 51.106,41.697 51.298,41.717 C51.582,41.9 51.878,42.06 52.178,42.207 C52.292,42.606 52.356,43 52.326,43.347 C52.287,43.824 52.104,43.966 51.804,44.052 L51.804,44.052 Z M55,44.874 C55,45.745 54.715,47.112 53.71,47.905 C54.073,46.844 54,45.816 55,44.854 L55,44.874 L55,44.874 Z M56.247,16.203 C55.481,15.472 54.592,14.825 53.637,14.267 C53.626,14.186 53.616,14.1 53.605,14.02 C53.998,13.535 54.447,13.401 55.039,13.233 L55.267,13.169 C55.721,13.037 56.554,13.12 57.471,13.682 C57.114,14.674 56.698,15.582 56.247,16.203 L56.247,16.203 Z M59.085,3.927 C59.085,3.568 59.372,3.277 59.723,3.277 C60.076,3.277 60.362,3.568 60.362,3.927 C60.362,4.286 60.076,4.576 59.723,4.576 C59.372,4.577 59.085,4.287 59.085,3.927 L59.085,3.927 Z M59.788,16.392 C60.039,16.891 60.274,17.472 60.482,18.145 C60.192,17.798 59.852,17.21 59.788,16.392 L59.788,16.392 Z M69.96,18.36 C69.016,18.041 68.064,17.859 67.116,17.77 C67.978,17.414 68.701,17.324 69.242,17.536 C69.639,17.693 69.996,18.019 70.314,18.504 C70.195,18.459 70.081,18.401 69.96,18.36 L69.96,18.36 Z M77.153,29.559 C77.492,30.197 77.68,30.824 77.651,31.395 C77.637,31.696 77.537,31.969 77.402,32.229 C77.402,32.229 77.402,32.229 77.402,32.228 C77.402,31.82 77.326,31.441 77.255,31.075 C77.221,30.906 77.187,30.739 77.163,30.57 C77.137,30.396 77.121,30.22 77.106,30.045 C77.094,29.931 77.08,29.814 77.068,29.697 C77.095,29.65 77.127,29.606 77.153,29.559 L77.153,29.559 Z" id="Shape"></path>
                    <path id="Shape" d="M44.666,11.744 C44.666,11.746 44.672,11.75 44.673,11.754 C44.672,11.749 44.666,11.746 44.666,11.741 L44.666,11.744 L44.666,11.744 Z"></path>
                </g>
            </g>
        </g>
        <text id="FSM" sketch:type="MSTextLayer" font-family="American Typewriter" font-size="14" font-weight="normal" fill="#CD2B5B">
            <tspan x="37" y="40">FSM</tspan>
        </text>
    </g>
</svg>