<?xml version="1.0" encoding="utf-8"?>
<!-- Generator: Adobe Illustrator 18.1.1, SVG Export Plug-In . SVG Version: 6.00 Build 0)  -->
<!DOCTYPE svg PUBLIC "-//W3C//DTD SVG 1.1//EN" "http://www.w3.org/Graphics/SVG/1.1/DTD/svg11.dtd">
<svg version="1.1" id="Layer_1" xmlns="http://www.w3.org/2000/svg" xmlns:xlink="http://www.w3.org/1999/xlink" x="0px" y="0px"
	 width="200px" height="200px" viewBox="-1267 297 200 200" enable-background="new -1267 297 200 200" xml:space="preserve">
<g>
	<polygon fill="#088BC0" points="-1152.7,382.7 -1195.6,382.7 -1195.6,397 -1181.3,397 -1181.3,439.9 -1195.6,439.9 -1195.6,454.1 
		-1138.4,454.1 -1138.4,439.9 -1152.7,439.9 	"/>
	<circle fill="#088BC0" cx="-1167" cy="354.1" r="14.3"/>
	<path fill="#088BC0" d="M-1167,297c-55.2,0-100,44.8-100,100s44.8,100,100,100s100-44.8,100-100S-1111.8,297-1167,297z
		 M-1167,489.9c-51.2,0-92.9-41.7-92.9-92.9s41.7-92.9,92.9-92.9s92.9,41.7,92.9,92.9S-1115.8,489.9-1167,489.9z"/>
</g>
</svg>
