<?xml version="1.0" encoding="utf-8"?>
<!-- Generator: Adobe Illustrator 18.1.1, SVG Export Plug-In . SVG Version: 6.00 Build 0)  -->
<!DOCTYPE svg PUBLIC "-//W3C//DTD SVG 1.1//EN" "http://www.w3.org/Graphics/SVG/1.1/DTD/svg11.dtd">
<svg version="1.1" id="Layer_1" xmlns="http://www.w3.org/2000/svg" xmlns:xlink="http://www.w3.org/1999/xlink" x="0px" y="0px"
	 width="200px" height="200px" viewBox="-1367 297 200 200" enable-background="new -1367 297 200 200" xml:space="preserve">
<g id="NO_STATE">
	<g id="Limmited">
		<path fill="#F19026" d="M-1267,426.8c-5.4,0-10,4.4-10,10c0,5.4,4.4,10,10,10s10-4.4,10-10C-1257,431.4-1261.6,426.8-1267,426.8z
			 M-1277,367.2l5,49.8h10l5-49.8v-20h-20V367.2z M-1267,297c-55.2,0-100,44.8-100,100s44.8,100,100,100s100-44.8,100-100
			S-1211.8,297-1267,297z M-1267,482.8c-47.2,0-85.8-38.6-85.8-85.8s38.6-85.8,85.8-85.8s85.8,38.4,85.8,85.8
			C-1181.2,444.2-1219.8,482.8-1267,482.8z"/>
	</g>
</g>
</svg>
