<?xml version="1.0" encoding="utf-8"?>
<!-- Generator: Adobe Illustrator 18.1.1, SVG Export Plug-In . SVG Version: 6.00 Build 0)  -->
<!DOCTYPE svg PUBLIC "-//W3C//DTD SVG 1.1//EN" "http://www.w3.org/Graphics/SVG/1.1/DTD/svg11.dtd">
<svg version="1.1" id="Layer_1" xmlns="http://www.w3.org/2000/svg" xmlns:xlink="http://www.w3.org/1999/xlink" x="0px" y="0px"
	 width="200px" height="200px" viewBox="-204.7 525.9 611.7 334.2" enable-background="new -204.7 525.9 611.7 334.2" xml:space="preserve">
<g>
	<rect x="-204.7" y="649.5" fill="#FFFFFF" width="35.2" height="35.2"/>
	<rect x="2.2" y="609.8" fill="#FFFFFF" width="35.2" height="35.2"/>
	<rect x="2.2" y="775.3" fill="#FFFFFF" width="35.2" height="35.2"/>
	<rect x="-39.5" y="775.3" fill="#FFFFFF" width="35.2" height="35.2"/>
	<rect x="43.2" y="609.8" fill="#FFFFFF" width="35.2" height="35.2"/>
	<rect x="43.2" y="649.5" fill="#FFFFFF" width="35.2" height="35.2"/>
	<rect x="43.2" y="733.4" fill="#FFFFFF" width="35.2" height="35.2"/>
	<rect x="-39.5" y="649.5" fill="#FFFFFF" width="35.2" height="35.2"/>
	<rect x="85.1" y="649.5" fill="#FFFFFF" width="35.2" height="35.2"/>
	<rect x="85.1" y="567.8" fill="#FFFFFF" width="35.2" height="35.2"/>
	<rect x="85.1" y="692.4" fill="#FFFFFF" width="75.3" height="35.2"/>
	<rect x="85.1" y="733.4" fill="#FFFFFF" width="35.2" height="35.2"/>
	<rect x="126.1" y="733.4" fill="#FFFFFF" width="35.2" height="35.2"/>
	<rect x="167.7" y="733.4" fill="#FFFFFF" width="35.2" height="35.2"/>
	<rect x="-122.4" y="733.4" fill="#FFFFFF" width="35.2" height="35.2"/>
	<rect x="-80.8" y="733.4" fill="#FFFFFF" width="35.2" height="35.2"/>
	<rect x="85.1" y="775.3" fill="#FFFFFF" width="35.2" height="35.2"/>
	<rect x="126.1" y="775.3" fill="#FFFFFF" width="35.2" height="35.2"/>
	<rect x="167.7" y="775.3" fill="#FFFFFF" width="35.2" height="35.2"/>
	<rect x="250.6" y="775.3" fill="#FFFFFF" width="35.2" height="35.2"/>
	<rect x="167.7" y="692.4" fill="#FFFFFF" width="35.2" height="35.2"/>
	<rect x="126.1" y="649.5" fill="#FFFFFF" width="35.2" height="35.2"/>
	<rect x="167.7" y="649.5" fill="#FFFFFF" width="35.2" height="35.2"/>
	<rect x="167.7" y="610.1" fill="#FFFFFF" width="35.2" height="35.2"/>
	<rect x="-39.5" y="691.5" fill="#FFFFFF" width="35.2" height="35.2"/>
	<rect x="-39.5" y="733.7" fill="#FFFFFF" width="35.2" height="35.2"/>
	<rect x="208.7" y="691.5" fill="#FFFFFF" width="76.8" height="76.8"/>
	<rect x="-163.4" y="609.8" fill="#FFFFFF" width="35.2" height="35.2"/>
	<polygon fill="#FFFFFF" points="78,692.4 37.4,692.4 2.2,692.4 2.2,727.6 2.2,768.3 37.4,768.3 37.4,727.6 78,727.6 	"/>
	<g>
		<path fill="#FFFFFF" d="M-86.6,726.7v-13.8h-9.2c-5.5,0-24.5,1.5-39.2,13.8H-86.6z"/>
		<path fill="#FFFFFF" d="M-114.1,675.9c1.2-8.6,3.4-17.4,6.1-26.3h-55.4V700C-149.3,687.2-131.9,679.2-114.1,675.9z"/>
	</g>
	<path fill="#FFFFFF" d="M364.8,860.1h-452c-44.4,0-96.4-23.6-96.4-90.6c0-60.9,45.3-82.3,76.5-86.6c6.4-69.2,72.8-157,192.2-157
		c108.3,0,152.7,81.1,164.3,108.3c1.8,0,3.7,0,5.8,0c18.4,0,43.8,3.7,60.9,20.8c23,23,28.8,45.3,29.7,58.1
		c25.4,7,61.2,27.8,61.2,70.7c0,59.1-38.9,74.7-40.7,75.3L364.8,860.1z M85.1,549.5C-33,549.5-84.1,645-84.1,693.6v11.6h-11.6
		c-6.4,0-64.3,3.1-64.3,64.3c0,15.6,5.2,67,73.1,67h447.1c5.8-3.1,24.2-16.2,24.2-52.6c0-40.7-49.3-49.6-51.4-49.9l-11.6-1.8
		l1.8-11.6c0-0.9,3.1-23.3-23-49.3c-12.2-12.2-33-14.1-44.4-14.1c-7,0-11.9,0.6-11.9,0.6l-9.8,1.5l-3.1-9.5
		C229.5,646.2,197.4,549.5,85.1,549.5z"/>
	<path fill="#FFFFFF" d="M-76.5,712.6h-4.3v13.8h35.2v-34.9h-30.9c0,0.6,0,1.2,0,1.8V712.6z"/>
	<path fill="#FFFFFF" d="M-45.6,684.7v-35.2h-20.2c-5.5,12.5-8.9,24.5-10.1,35.2H-45.6z"/>
	<path fill="#FFFFFF" d="M-63.6,645h17.7v-27.8C-52.9,626-58.7,635.5-63.6,645z"/>
	<path fill="#FFFFFF" d="M192.5,602.4c-6.7-7.3-15-14.7-24.8-21.4v21.4H192.5z"/>
	<path fill="#FFFFFF" d="M208.7,623.2v21.4H220C217.9,639.1,214.2,631.5,208.7,623.2z"/>
	<path fill="#FFFFFF" d="M208.7,684.7h35.2v-18.7l-15.6,2.1l-4.9-15.9c0-0.3-0.3-1.2-0.9-2.8H209L208.7,684.7L208.7,684.7z"/>
	<path fill="#FFFFFF" d="M285.2,671.3c-10.7-5.2-23.9-5.8-30.3-5.8c-1.8,0-3.4,0-4.9,0v19.3h35.2L285.2,671.3L285.2,671.3z"/>
	<path fill="#FFFFFF" d="M292.6,727.6H314l1.5-8.3c0-0.3,1.2-11.6-8.6-26.9h-14.4V727.6z"/>
	<polygon fill="#FFFFFF" points="292.6,733.4 292.6,768.6 327.4,768.6 327.4,741.3 311.8,738.6 312.8,733.4 	"/>
	<rect x="292.6" y="817.2" fill="#FFFFFF" width="35.2" height="11.6"/>
	<rect x="167.7" y="817.2" fill="#FFFFFF" width="75.3" height="11.6"/>
	<rect x="43.2" y="816.3" fill="#FFFFFF" width="35.2" height="12.2"/>
	<rect x="-80.8" y="817.2" fill="#FFFFFF" width="75.3" height="11.6"/>
	<path fill="#FFFFFF" d="M-122.4,816.3v5.5c8.9,4.3,20.2,7,35.2,7v-12.2L-122.4,816.3L-122.4,816.3z"/>
	<path fill="#FFFFFF" d="M-128.5,775h-23.9c0.6,10.1,3.7,23.9,13.8,35.2h10.1V775z"/>
	<path fill="#FFFFFF" d="M-128.5,733.4h-13.2c-6.4,8-10.7,19.3-11,35.2h23.9L-128.5,733.4L-128.5,733.4z"/>
</g>
</svg>
