<?xml version="1.0" encoding="utf-8"?>
<!-- Generator: Adobe Illustrator 18.1.1, SVG Export Plug-In . SVG Version: 6.00 Build 0)  -->
<!DOCTYPE svg PUBLIC "-//W3C//DTD SVG 1.1//EN" "http://www.w3.org/Graphics/SVG/1.1/DTD/svg11.dtd">
<svg version="1.1" id="Layer_1" xmlns="http://www.w3.org/2000/svg" xmlns:xlink="http://www.w3.org/1999/xlink" x="0px" y="0px"
	 width="64px" height="64px" viewBox="-1267 297 200 200" enable-background="new -1267 297 200 200" xml:space="preserve">
<g>
	<rect x="-1267" y="382.8" fill="#28AFE5" width="11.5" height="11.5"/>
	<rect x="-1199.4" y="369.8" fill="#28AFE5" width="11.5" height="11.5"/>
	<rect x="-1199.4" y="423.9" fill="#28AFE5" width="11.5" height="11.5"/>
	<rect x="-1213" y="423.9" fill="#28AFE5" width="11.5" height="11.5"/>
	<rect x="-1186" y="369.8" fill="#28AFE5" width="11.5" height="11.5"/>
	<rect x="-1186" y="382.8" fill="#28AFE5" width="11.5" height="11.5"/>
	<rect x="-1186" y="410.2" fill="#28AFE5" width="11.5" height="11.5"/>
	<rect x="-1213" y="382.8" fill="#28AFE5" width="11.5" height="11.5"/>
	<rect x="-1172.3" y="382.8" fill="#28AFE5" width="11.5" height="11.5"/>
	<rect x="-1172.3" y="356.1" fill="#28AFE5" width="11.5" height="11.5"/>
	<rect x="-1172.3" y="396.8" fill="#28AFE5" width="24.6" height="11.5"/>
	<rect x="-1172.3" y="410.2" fill="#28AFE5" width="11.5" height="11.5"/>
	<rect x="-1158.9" y="410.2" fill="#28AFE5" width="11.5" height="11.5"/>
	<rect x="-1145.3" y="410.2" fill="#28AFE5" width="11.5" height="11.5"/>
	<rect x="-1240.1" y="410.2" fill="#28AFE5" width="11.5" height="11.5"/>
	<rect x="-1226.5" y="410.2" fill="#28AFE5" width="11.5" height="11.5"/>
	<rect x="-1172.3" y="423.9" fill="#28AFE5" width="11.5" height="11.5"/>
	<rect x="-1158.9" y="423.9" fill="#28AFE5" width="11.5" height="11.5"/>
	<rect x="-1145.3" y="423.9" fill="#28AFE5" width="11.5" height="11.5"/>
	<rect x="-1118.2" y="423.9" fill="#28AFE5" width="11.5" height="11.5"/>
	<rect x="-1145.3" y="396.8" fill="#28AFE5" width="11.5" height="11.5"/>
	<rect x="-1158.9" y="382.8" fill="#28AFE5" width="11.5" height="11.5"/>
	<rect x="-1145.3" y="382.8" fill="#28AFE5" width="11.5" height="11.5"/>
	<rect x="-1145.3" y="369.9" fill="#28AFE5" width="11.5" height="11.5"/>
	<rect x="-1213" y="396.5" fill="#28AFE5" width="11.5" height="11.5"/>
	<rect x="-1213" y="410.3" fill="#28AFE5" width="11.5" height="11.5"/>
	<rect x="-1131.9" y="396.5" fill="#28AFE5" width="25.1" height="25.1"/>
	<rect x="-1253.5" y="369.8" fill="#28AFE5" width="11.5" height="11.5"/>
	<polygon fill="#28AFE5" points="-1174.6,396.8 -1187.9,396.8 -1199.4,396.8 -1199.4,408.3 -1199.4,421.6 -1187.9,421.6 
		-1187.9,408.3 -1174.6,408.3 	"/>
	<g>
		<path fill="#28AFE5" d="M-1228.4,408v-4.5h-3c-1.8,0-8,0.5-12.8,4.5H-1228.4z"/>
		<path fill="#28AFE5" d="M-1237.4,391.4c0.4-2.8,1.1-5.7,2-8.6h-18.1v16.5C-1248.9,395.1-1243.2,392.5-1237.4,391.4z"/>
	</g>
	<path fill="#28AFE5" d="M-1080.9,451.6h-147.7c-14.5,0-31.5-7.7-31.5-29.6c0-19.9,14.8-26.9,25-28.3c2.1-22.6,23.8-51.3,62.8-51.3
		c35.4,0,49.9,26.5,53.7,35.4c0.6,0,1.2,0,1.9,0c6,0,14.3,1.2,19.9,6.8c7.5,7.5,9.4,14.8,9.7,19c8.3,2.3,20,9.1,20,23.1
		c0,19.3-12.7,24.4-13.3,24.6L-1080.9,451.6z M-1172.3,350.1c-38.6,0-55.3,31.2-55.3,47.1v3.8h-3.8c-2.1,0-21,1-21,21
		c0,5.1,1.7,21.9,23.9,21.9h146.1c1.9-1,7.9-5.3,7.9-17.2c0-13.3-16.1-16.2-16.8-16.3l-3.8-0.6l0.6-3.8c0-0.3,1-7.6-7.5-16.1
		c-4-4-10.8-4.6-14.5-4.6c-2.3,0-3.9,0.2-3.9,0.2l-3.2,0.5l-1-3.1C-1125.1,381.7-1135.6,350.1-1172.3,350.1z"/>
	<path fill="#28AFE5" d="M-1225.1,403.4h-1.4v4.5h11.5v-11.4h-10.1c0,0.2,0,0.4,0,0.6V403.4z"/>
	<path fill="#28AFE5" d="M-1215,394.3v-11.5h-6.6c-1.8,4.1-2.9,8-3.3,11.5H-1215z"/>
	<path fill="#28AFE5" d="M-1220.8,381.3h5.8v-9.1C-1217.4,375.1-1219.3,378.2-1220.8,381.3z"/>
	<path fill="#28AFE5" d="M-1137.2,367.4c-2.2-2.4-4.9-4.8-8.1-7v7H-1137.2z"/>
	<path fill="#28AFE5" d="M-1131.9,374.2v7h3.7C-1128.9,379.4-1130.1,376.9-1131.9,374.2z"/>
	<path fill="#28AFE5" d="M-1131.9,394.3h11.5v-6.1l-5.1,0.7l-1.6-5.2c0-0.1-0.1-0.4-0.3-0.9h-4.4L-1131.9,394.3L-1131.9,394.3z"/>
	<path fill="#28AFE5" d="M-1106.8,389.9c-3.5-1.7-7.8-1.9-9.9-1.9c-0.6,0-1.1,0-1.6,0v6.3h11.5V389.9z"/>
	<path fill="#28AFE5" d="M-1104.5,408.3h7l0.5-2.7c0-0.1,0.4-3.8-2.8-8.8h-4.7V408.3z"/>
	<polygon fill="#28AFE5" points="-1104.5,410.2 -1104.5,421.7 -1093.1,421.7 -1093.1,412.8 -1098.2,411.9 -1097.9,410.2 	"/>
	<rect x="-1104.5" y="437.6" fill="#28AFE5" width="11.5" height="3.8"/>
	<rect x="-1145.3" y="437.6" fill="#28AFE5" width="24.6" height="3.8"/>
	<rect x="-1186" y="437.3" fill="#28AFE5" width="11.5" height="4"/>
	<rect x="-1226.5" y="437.6" fill="#28AFE5" width="24.6" height="3.8"/>
	<path fill="#28AFE5" d="M-1240.1,437.3v1.8c2.9,1.4,6.6,2.3,11.5,2.3v-4h-11.5V437.3z"/>
	<path fill="#28AFE5" d="M-1242.1,423.8h-7.8c0.2,3.3,1.2,7.8,4.5,11.5h3.3C-1242.1,435.3-1242.1,423.8-1242.1,423.8z"/>
	<path fill="#28AFE5" d="M-1242.1,410.2h-4.3c-2.1,2.6-3.5,6.3-3.6,11.5h7.8L-1242.1,410.2L-1242.1,410.2z"/>
</g>
</svg>
