<?xml version="1.0" encoding="utf-8"?>
<!-- Generator: Adobe Illustrator 18.1.1, SVG Export Plug-In . SVG Version: 6.00 Build 0)  -->
<svg version="1.1" id="Layer_1" xmlns="http://www.w3.org/2000/svg" xmlns:xlink="http://www.w3.org/1999/xlink" x="0px" y="0px"
	 width="64px" height="64px" viewBox="-152.4 387 506.7 612" enable-background="new -152.4 387 506.7 612" xml:space="preserve">
<g>
	<path fill="#FFFFFF" d="M-152.4,387v189.7h506.7V387H-152.4z M-52,530.8c-26.9,0-49-22-49-49c0-26.9,22-49,49-49s49,22,49,49
		C-3,508.8-25.1,530.8-52,530.8z"/>
	<path fill="#FFFFFF" d="M-152.4,597.5v190.3h506.7v-190h-506.7V597.5z M-52,742c-26.9,0-49-22-49-49c0-26.9,22-49,49-49
		s49,22,49,49C-3,719.9-25.1,742-52,742z"/>
	<path fill="#FFFFFF" d="M-152.4,808.7V999h506.7V809h-506.7V808.7z M-52,952.5c-26.9,0-49-22-49-49c0-26.9,22-49,49-49s49,22,49,49
		C-3,931.1-25.1,952.5-52,952.5z"/>
</g>
</svg>
