<?xml version="1.0" encoding="utf-8"?>
<!-- Generator: Adobe Illustrator 18.1.1, SVG Export Plug-In . SVG Version: 6.00 Build 0)  -->
<!DOCTYPE svg PUBLIC "-//W3C//DTD SVG 1.1//EN" "http://www.w3.org/Graphics/SVG/1.1/DTD/svg11.dtd">
<svg version="1.1" id="Layer_1" xmlns="http://www.w3.org/2000/svg" xmlns:xlink="http://www.w3.org/1999/xlink" x="0px" y="0px"
	 width="64px" height="64px" viewBox="75 -75 200 200" enable-background="new 75 -75 200 200" xml:space="preserve">
<g>
	<g>
		<g>
			<g>
				<path fill="#89C541" d="M110.2-74.5v61.8H275v-61.9H110.2V-74.5z M142.8-27.8c-8.8,0-16-7.2-16-16s7.2-16,16-16s16,7.2,16,16
					C158.5-35,151.6-27.8,142.8-27.8z"/>
				<path fill="#0A4369" d="M110.2-6.1v61.9H275V-6.1H110.2z M142.8,41c-8.8,0-16-7.2-16-16s7.2-16,16-16s16,7.2,16,16
					C158.5,33.8,151.6,41,142.8,41z"/>
				<path fill="#0A4369" d="M110.2,62.7v61.9H275V62.7H110.2z M142.8,109.5c-8.8,0-16-7.2-16-16s7.2-16,16-16s16,7.2,16,16
					C158.5,102.2,151.6,109.5,142.8,109.5z"/>
			</g>
		</g>
		<circle fill="#FFFFFF" cx="142.8" cy="-43.8" r="16"/>
		<circle fill="#FFFFFF" cx="142.8" cy="25" r="16"/>
		<circle fill="#FFFFFF" cx="142.8" cy="93.4" r="16"/>
	</g>
	<g>
		<g>
			<rect x="75" y="-15.1" fill="#3C4C55" width="147.6" height="60.8"/>
			<polygon fill="#161E23" points="110.2,60.9 86.6,60.9 75,45.7 110.2,45.7 			"/>
			<g>
				<path fill="#FFFFFF" d="M107,3h10.4c5,0,8.1,1.1,8.1,5.9c0,2.8-1.7,5.4-4.7,5.8v0.1c2.4,0.7,3.7,2.7,3.7,5.1
					c0,5.4-4.5,8.2-9.5,8.2h-13.2L107,3z M108,23.7h6.9c2.5,0,4.3-1.4,4.3-4s-2.4-2.8-4.3-2.8h-5.4L108,23.7z M110.2,13.2h6.2
					c2,0,3.7-1.1,3.7-3.3c0-1.9-1.1-2.5-2.9-2.5h-5.8L110.2,13.2z"/>
				<path fill="#FFFFFF" d="M131.2,3h18.9l-1,4.6h-13.4l-1.1,5.3H147l-0.9,4.3h-12.4l-1.3,6.1h13.7l-1,4.6h-19.2L131.2,3z"/>
				<path fill="#FFFFFF" d="M159.3,7.6h-7.8l1-4.6h20.7l-1,4.6h-7.5l-4.3,20.2H155L159.3,7.6z"/>
				<path fill="#FFFFFF" d="M179.2,3h5.6l4.1,24.8h-5.3l-0.8-5.5h-9.3l-3.1,5.5h-5.8L179.2,3z M175.6,18.3h6.7L181,8.5h-0.1
					L175.6,18.3z"/>
			</g>
		</g>
	</g>
</g>
</svg>
