<?xml version="1.0" encoding="utf-8"?>
<!-- Generator: Adobe Illustrator 18.1.1, SVG Export Plug-In . SVG Version: 6.00 Build 0)  -->
<!DOCTYPE svg PUBLIC "-//W3C//DTD SVG 1.1//EN" "http://www.w3.org/Graphics/SVG/1.1/DTD/svg11.dtd">
<svg version="1.1" id="Layer_1" xmlns="http://www.w3.org/2000/svg" xmlns:xlink="http://www.w3.org/1999/xlink" x="0px" y="0px"
	 width="64px" height="64px" viewBox="-1267 297 200 200" enable-background="new -1267 297 200 200" xml:space="preserve">
<g>
	<path fill="#26AEE5" d="M-1068.5,297h-197c-0.8,0-1.5,0.7-1.5,1.5v197c0,0.8,0.7,1.5,1.5,1.5h197c0.8,0,1.5-0.7,1.5-1.5v-197
		C-1067,297.6-1067.7,297-1068.5,297z"/>
	<g>
		<path fill="#FFFFFF" d="M-1109.2,372.5h-115.6v-45h115.5v45H-1109.2z M-1222.2,369.9h110.4v-39.8h-110.4V369.9z M-1201.1,362.2
			c-6.7,0-12.2-5.5-12.2-12.2s5.5-12.2,12.2-12.2c6.7,0,12.2,5.5,12.2,12.2S-1194.3,362.2-1201.1,362.2z M-1201.1,340.4
			c-5.3,0-9.6,4.3-9.6,9.6s4.3,9.6,9.6,9.6c5.3,0,9.6-4.3,9.6-9.6S-1195.8,340.4-1201.1,340.4z"/>
		<path fill="#FFFFFF" d="M-1109.2,419.5h-115.6v-45h115.5v45H-1109.2z M-1222.2,416.9h110.4v-39.8h-110.4V416.9z M-1201.1,409.2
			c-6.7,0-12.2-5.5-12.2-12.2s5.5-12.2,12.2-12.2c6.7,0,12.2,5.5,12.2,12.2S-1194.3,409.2-1201.1,409.2z M-1201.1,387.4
			c-5.3,0-9.6,4.3-9.6,9.6s4.3,9.6,9.6,9.6c5.3,0,9.6-4.3,9.6-9.6S-1195.8,387.4-1201.1,387.4z"/>
		<path fill="#FFFFFF" d="M-1109.2,466.5h-115.6v-45h115.5v45H-1109.2z M-1222.2,463.9h110.4v-39.8h-110.4V463.9z M-1201.1,456.2
			c-6.7,0-12.2-5.5-12.2-12.2s5.5-12.2,12.2-12.2c6.7,0,12.2,5.5,12.2,12.2S-1194.3,456.2-1201.1,456.2z M-1201.1,434.4
			c-5.3,0-9.6,4.3-9.6,9.6s4.3,9.6,9.6,9.6c5.3,0,9.6-4.3,9.6-9.6S-1195.8,434.4-1201.1,434.4z"/>
	</g>
</g>
</svg>
