<?xml version="1.0" encoding="utf-8"?>
<!-- Generator: Adobe Illustrator 18.1.1, SVG Export Plug-In . SVG Version: 6.00 Build 0)  -->
<!DOCTYPE svg PUBLIC "-//W3C//DTD SVG 1.1//EN" "http://www.w3.org/Graphics/SVG/1.1/DTD/svg11.dtd">
<svg version="1.1" id="Layer_1" xmlns="http://www.w3.org/2000/svg" xmlns:xlink="http://www.w3.org/1999/xlink" x="0px" y="0px"
	 width="64px" height="64px" viewBox="-1267 297 200 200" enable-background="new -1267 297 200 200" xml:space="preserve">
<g>
	<path fill="#25AFE5" d="M-1249.8,297v62.1h165.7V297H-1249.8z M-1217.1,344.1c-8.8,0-16-7.2-16-16c0-8.8,7.2-16,16-16
		c8.8,0,16,7.2,16,16C-1201.1,336.9-1208.2,344.1-1217.1,344.1z"/>
	<path fill="#25AFE5" d="M-1249.8,365.9V428h165.7v-62.1H-1249.8z M-1217.1,413c-8.8,0-16-7.2-16-16s7.2-16,16-16
		c8.8,0,16,7.2,16,16S-1208.2,413-1217.1,413z"/>
	<path fill="#25AFE5" d="M-1249.8,434.9V497h165.7v-62.1H-1249.8z M-1217.1,481.9c-8.8,0-16-7.2-16-16c0-8.8,7.2-16,16-16
		c8.8,0,16,7.2,16,16C-1201.1,474.7-1208.2,481.9-1217.1,481.9z"/>
</g>
</svg>
