<?xml version="1.0" encoding="utf-8"?>
<!-- Generator: Adobe Illustrator 18.1.1, SVG Export Plug-In . SVG Version: 6.00 Build 0)  -->
<!DOCTYPE svg PUBLIC "-//W3C//DTD SVG 1.1//EN" "http://www.w3.org/Graphics/SVG/1.1/DTD/svg11.dtd">
<svg version="1.1" id="Layer_1" xmlns="http://www.w3.org/2000/svg" xmlns:xlink="http://www.w3.org/1999/xlink" x="0px" y="0px"
	 width="64px" height="64px" viewBox="-1267 297 200 200" enable-background="new -1267 297 200 200" xml:space="preserve">
<g>
	<g>
		<path fill="#563073" d="M-1262.9,438.5V497h155.6v-58.4H-1262.9z M-1232.1,482.9c-8.3,0-15-6.7-15-15s6.7-15,15-15
			c8.3,0,15,6.7,15,15S-1223.8,482.9-1232.1,482.9z"/>
		<path fill="#563073" d="M-1183,354c0-13,10.5-23.5,23.5-23.5c1.1,0,2.2,0.1,3.5,0.3l5.7,0.9l1-5.7c1.2-6.9,4.8-12.8,9.9-16.9
			h-123.5v58.4h84.2C-1181.4,363.6-1183,359-1183,354z M-1232.1,353.2c-8.3,0-15-6.7-15-15s6.7-15,15-15c8.3,0,15,6.7,15,15
			S-1223.8,353.2-1232.1,353.2z"/>
		<path fill="#563073" d="M-1159.5,377.5c-4.6,0-8.9-1.3-12.5-3.6h-90.9v58.4h155.6v-54.8H-1159.5z M-1232.1,418
			c-8.3,0-15-6.7-15-15s6.7-15,15-15c8.3,0,15,6.7,15,15S-1223.8,418-1232.1,418z"/>
	</g>
	<g>
		<path fill="#563073" d="M-1089,326.9c-1.7-16.8-15.9-29.8-33.1-29.8c-16.5,0-30.2,12.1-32.9,27.8c-1.5-0.2-2.9-0.4-4.4-0.4
			c-16.3,0-29.4,13.2-29.4,29.4c0,16.2,13.2,29.4,29.4,29.4h58.9c16.3,0,29.4-13.2,29.4-29.4C-1071.2,341.8-1078.5,331.4-1089,326.9
			z M-1100.6,377.5h-58.9c-13,0-23.5-10.5-23.5-23.5s10.5-23.5,23.5-23.5c1.1,0,2.2,0.1,3.5,0.3l5.7,0.9l1-5.7
			c2.3-13.4,13.7-23,27.2-23c14.1,0,25.8,10.5,27.3,24.6l0.3,3.4l3.2,1.4c8.7,3.7,14.3,12.2,14.3,21.6
			C-1077.1,366.9-1087.6,377.5-1100.6,377.5z"/>
		<g>
			<g>
				<path fill="#563073" d="M-1107.8,331.1c0-7.2-6.1-13.3-13.3-13.3c-7.2,0-13.3,6.1-13.3,13.3v6c-2.7,3.1-4.4,7.2-4.4,11.7
					c0,9.8,7.9,17.8,17.8,17.8s17.7-7.9,17.7-17.8c0-4.5-1.7-8.6-4.4-11.7L-1107.8,331.1L-1107.8,331.1z M-1130,331.1
					c0-4.7,4.2-8.9,8.9-8.9c4.7,0,8.9,4.2,8.9,8.9v2.4c-2.6-1.5-5.6-2.4-8.9-2.4c-3.3,0-6.3,0.9-8.9,2.4V331.1z"/>
			</g>
		</g>
	</g>
</g>
</svg>
