<?xml version="1.0" encoding="utf-8"?>
<!-- Generator: Adobe Illustrator 18.1.1, SVG Export Plug-In . SVG Version: 6.00 Build 0)  -->
<!DOCTYPE svg PUBLIC "-//W3C//DTD SVG 1.1//EN" "http://www.w3.org/Graphics/SVG/1.1/DTD/svg11.dtd">
<svg version="1.1" id="Layer_1" xmlns="http://www.w3.org/2000/svg" xmlns:xlink="http://www.w3.org/1999/xlink" x="0px" y="0px"
	 width="200px" height="200px" viewBox="0 0 200 200" enable-background="new 0 0 200 200" xml:space="preserve">
<g>
	<path fill="#89C541" d="M17.2,0v62.1h165.7V0H17.2z M49.9,47.1c-8.8,0-16-7.2-16-16s7.2-16,16-16s16,7.2,16,16S58.8,47.1,49.9,47.1
		z"/>
	<path fill="#0A4369" d="M17.2,68.9V131h165.7V68.9H17.2z M49.9,116c-8.8,0-16-7.2-16-16s7.2-16,16-16s16,7.2,16,16
		S58.8,116,49.9,116z"/>
	<path fill="#0A4369" d="M17.2,137.9V200h165.7v-62.1H17.2z M49.9,184.9c-8.8,0-16-7.2-16-16s7.2-16,16-16s16,7.2,16,16
		C65.9,177.7,58.8,184.9,49.9,184.9z"/>
</g>
</svg>
