<?xml version="1.0" encoding="utf-8"?>
<!-- Generator: Adobe Illustrator 18.1.1, SVG Export Plug-In . SVG Version: 6.00 Build 0)  -->
<!DOCTYPE svg PUBLIC "-//W3C//DTD SVG 1.1//EN" "http://www.w3.org/Graphics/SVG/1.1/DTD/svg11.dtd">
<svg version="1.1" id="Layer_1" xmlns="http://www.w3.org/2000/svg" xmlns:xlink="http://www.w3.org/1999/xlink" x="0px" y="0px"
	 width="200px" height="200px" viewBox="-1267 297 200 200" enable-background="new -1267 297 200 200" xml:space="preserve">
<g>
	<g>
		<g>
			<g>
				<path fill="#24AEE4" d="M-1231.6,297.5v61.8h164.6v-61.8H-1231.6z M-1199,344.4c-8.8,0-15.9-7.1-15.9-15.9
					c0-8.8,7.1-15.9,15.9-15.9s15.9,7.1,15.9,15.9C-1183.1,337.2-1190.2,344.4-1199,344.4z"/>
				<path fill="#24AEE4" d="M-1231.6,366.1V428h164.6v-61.8H-1231.6z M-1199,412.9c-8.8,0-15.9-7.1-15.9-15.9
					c0-8.8,7.1-15.9,15.9-15.9s15.9,7.1,15.9,15.9C-1183.1,405.8-1190.2,412.9-1199,412.9z"/>
				<path fill="#24AEE4" d="M-1231.6,434.6v61.8h164.6v-61.8H-1231.6z M-1199,481.5c-8.8,0-15.9-7.1-15.9-15.9
					c0-8.8,7.1-15.9,15.9-15.9s15.9,7.1,15.9,15.9C-1183.1,474.4-1190.2,481.5-1199,481.5z"/>
			</g>
		</g>
		<circle fill="#FFFFFF" cx="-1199" cy="328.5" r="15.9"/>
		<circle fill="#FFFFFF" cx="-1199" cy="397" r="15.9"/>
		<circle fill="#FFFFFF" cx="-1199" cy="465.6" r="15.9"/>
	</g>
	<g>
		<rect x="-1267" y="348.4" fill="#3C4C55" width="148.4" height="61.1"/>
		<polygon fill="#161E23" points="-1231.6,424.8 -1255.3,424.8 -1267,409.5 -1231.6,409.5 		"/>
		<g>
			<path fill="#FFFFFF" d="M-1234.8,366.6h10.5c5,0,8.1,1.1,8.1,5.9c0,2.8-1.7,5.4-4.7,5.8v0.1c2.4,0.7,3.7,2.7,3.7,5.1
				c0,5.4-4.5,8.2-9.5,8.2h-13.3L-1234.8,366.6z M-1233.8,387.4h6.9c2.5,0,4.3-1.4,4.3-4s-2.4-2.8-4.3-2.8h-5.4L-1233.8,387.4z
				 M-1231.6,376.8h6.2c2,0,3.7-1.1,3.7-3.3c0-1.9-1.1-2.5-2.9-2.5h-5.8L-1231.6,376.8z"/>
			<path fill="#FFFFFF" d="M-1210.5,366.6h19l-1,4.6h-13.5l-1.1,5.3h12.5l-0.9,4.3h-12.5l-1.3,6.1h13.8l-1,4.6h-19.3L-1210.5,366.6z
				"/>
			<path fill="#FFFFFF" d="M-1182.3,371.2h-7.8l1-4.6h20.8l-1,4.6h-7.5l-4.3,20.3h-5.5L-1182.3,371.2z"/>
			<path fill="#FFFFFF" d="M-1162.3,366.6h5.6l4.1,24.9h-5.3l-0.8-5.5h-9.3l-3.1,5.5h-5.8L-1162.3,366.6z M-1165.9,382h6.7l-1.2-9.9
				h-0.1L-1165.9,382z"/>
		</g>
	</g>
</g>
</svg>
