<?xml version="1.0" encoding="utf-8"?>
<!-- Generator: Adobe Illustrator 18.1.1, SVG Export Plug-In . SVG Version: 6.00 Build 0)  -->
<!DOCTYPE svg PUBLIC "-//W3C//DTD SVG 1.1//EN" "http://www.w3.org/Graphics/SVG/1.1/DTD/svg11.dtd">
<svg version="1.1" id="Layer_1" xmlns="http://www.w3.org/2000/svg" xmlns:xlink="http://www.w3.org/1999/xlink" x="0px" y="0px"
	 width="200px" height="200px" viewBox="-1267 297 200 200" enable-background="new -1267 297 200 200" xml:space="preserve">
<g>
	<g>
		<g>
			<g>
				<path fill="#24B0E6" d="M-1231.8,297.5v61.8h164.8v-61.9h-164.8V297.5z M-1199.2,344.2c-8.8,0-16-7.2-16-16c0-8.8,7.2-16,16-16
					c8.8,0,16,7.2,16,16C-1183.5,337-1190.4,344.2-1199.2,344.2z"/>
				<path fill="#24B0E6" d="M-1231.8,365.9v61.9h164.8v-61.9H-1231.8z M-1199.2,413c-8.8,0-16-7.2-16-16s7.2-16,16-16
					c8.8,0,16,7.2,16,16C-1183.5,405.8-1190.4,413-1199.2,413z"/>
				<path fill="#24B0E6" d="M-1231.8,434.7v61.9h164.8v-61.9H-1231.8z M-1199.2,481.5c-8.8,0-16-7.2-16-16c0-8.8,7.2-16,16-16
					c8.8,0,16,7.2,16,16C-1183.5,474.2-1190.4,481.5-1199.2,481.5z"/>
			</g>
		</g>
		<circle fill="#FFFFFF" cx="-1199.2" cy="328.2" r="16"/>
		<circle fill="#FFFFFF" cx="-1199.2" cy="397" r="16"/>
		<circle fill="#FFFFFF" cx="-1199.2" cy="465.4" r="16"/>
	</g>
	<g>
		<polygon fill="#D1D3D4" points="-1231.8,433.1 -1255.4,433.1 -1267,418 -1231.8,418 		"/>
		<rect x="-1267" y="357.1" fill="#FFFFFF" width="147.9" height="60.9"/>
		<rect x="-1239.4" y="375.3" fill="none" width="101.7" height="35.8"/>
		<g enable-background="new    ">
			<path fill="#3B4B54" d="M-1234.9,375.3h10.4c5,0,8.1,1.1,8.1,5.8c0,2.8-1.7,5.4-4.6,5.8v0.1c2.4,0.7,3.7,2.6,3.7,5.1
				c0,5.4-4.5,8.1-9.5,8.1h-13.3L-1234.9,375.3z M-1233.9,395.8h6.9c2.5,0,4.3-1.4,4.3-4c0-2.6-2.4-2.8-4.3-2.8h-5.4L-1233.9,395.8z
				 M-1231.7,385.3h6.2c2,0,3.7-1.1,3.7-3.3c0-1.9-1.1-2.5-2.9-2.5h-5.8L-1231.7,385.3z"/>
			<path fill="#3B4B54" d="M-1210.7,375.3h19l-0.9,4.6h-13.5l-1.1,5.3h12.5l-0.9,4.2h-12.5l-1.3,6.1h13.7l-1,4.6h-19.2
				L-1210.7,375.3z"/>
			<path fill="#3B4B54" d="M-1182.6,379.8h-7.8l1-4.6h20.7l-1,4.6h-7.4l-4.2,20.3h-5.6L-1182.6,379.8z"/>
			<path fill="#3B4B54" d="M-1162.6,375.3h5.6l4.1,24.8h-5.4l-0.8-5.5h-9.3l-3.1,5.5h-5.8L-1162.6,375.3z M-1166.3,390.5h6.7
				l-1.2-9.9h-0.1L-1166.3,390.5z"/>
		</g>
	</g>
</g>
</svg>
