<?xml version="1.0" encoding="utf-8"?>
<!-- Generator: Adobe Illustrator 18.1.1, SVG Export Plug-In . SVG Version: 6.00 Build 0)  -->
<!DOCTYPE svg PUBLIC "-//W3C//DTD SVG 1.1//EN" "http://www.w3.org/Graphics/SVG/1.1/DTD/svg11.dtd">
<svg version="1.1" id="Layer_1" xmlns="http://www.w3.org/2000/svg" xmlns:xlink="http://www.w3.org/1999/xlink" x="0px" y="0px"
	 width="200px" height="200px" viewBox="-1267 297 200 200" enable-background="new -1267 297 200 200" xml:space="preserve">
<g>
	<g>
		<path fill="#F3F2F5" d="M-1251.1,297h168.2c8.7,0,15.9,7.1,15.9,15.9v168.3c0,8.7-7.1,15.9-15.9,15.9h-168.3
			c-8.7,0-15.9-7.1-15.9-15.9V312.9C-1266.9,304-1259.8,297-1251.1,297z"/>
	</g>
	<g>
		<path fill="#563073" d="M-1225.7,325.5v43.7h117.4v-43.7H-1225.7z M-1202.7,358.9c-6.3,0-11.1-4.8-11.1-11.1s4.8-11.1,11.1-11.1
			c6.3,0,11.1,4.8,11.1,11.1C-1190.8,354-1196.3,358.9-1202.7,358.9z"/>
		<path fill="#563073" d="M-1225.7,374.8v43.7h117.4v-43.7H-1225.7z M-1202.7,408c-6.3,0-11.1-4.8-11.1-11.1
			c0-6.3,4.8-11.1,11.1-11.1c6.3,0,11.1,4.8,11.1,11.1C-1190.8,402.5-1196.3,408-1202.7,408z"/>
		<path fill="#563073" d="M-1225.7,423.1v43.7h117.4v-43.7H-1225.7z M-1202.7,456.5c-6.3,0-11.1-4.8-11.1-11.1
			c0-6.3,4.8-11.1,11.1-11.1c6.3,0,11.1,4.8,11.1,11.1C-1190.8,451.8-1196.3,456.5-1202.7,456.5z"/>
	</g>
	<g>
		<path fill="#FFFFFF" d="M-1103.4,377.1h-44.4c-9.5,0-17.5-7.9-17.5-17.5s7.9-17.5,17.5-17.5c0.8,0,1.6,0,2.4,0l4,0.8l1.6-4.8
			c1.6-9.5,10.3-17.5,20.6-17.5s19.8,7.9,20.6,18.3v2.4l2.4,0.8c6.3,3.2,11.1,9.5,11.1,16.7
			C-1085.9,369.1-1093.9,377.1-1103.4,377.1z"/>
		<path fill="#563073" d="M-1094.8,339c-1.6-12.7-11.9-22.3-24.6-22.3c-12.7,0-23,8.7-24.6,20.6c-0.8,0-2.4,0-3.2,0
			c-11.9,0-22.2,9.5-22.2,22.2c0,12.7,9.5,22.2,22.2,22.2h44.4c11.9,0,22.2-9.5,22.2-22.2C-1081.2,350.1-1086.8,342.1-1094.8,339z
			 M-1103.4,377.1h-44.4c-9.5,0-17.5-7.9-17.5-17.5s7.9-17.5,17.5-17.5c0.8,0,1.6,0,2.4,0l4,0.8l1.6-4.8
			c1.6-9.5,10.3-17.5,20.6-17.5s19.8,7.9,20.6,18.3v2.4l2.4,0.8c6.3,3.2,11.1,9.5,11.1,16.7
			C-1085.9,369.1-1093.9,377.1-1103.4,377.1z"/>
		<g>
			<g>
				<path fill="#563073" d="M-1109.1,342.1c0-5.6-4.8-10.3-10.3-10.3c-5.6,0-10.3,4.8-10.3,10.3v4.8c-1.6,2.4-2.4,5.6-2.4,8.7
					c0,7.1,6.3,13.5,13.5,13.5c7.2,0,13.5-6.3,13.5-13.5c0-3.2-1.6-6.3-3.2-8.7v-4.8H-1109.1z M-1125.7,342.1c0-3.2,3.2-6.3,6.3-6.3
					s6.3,3.2,6.3,6.3v2.4c-1.6-0.8-4-1.6-6.3-1.6c-2.3,0-4.8,0.8-6.3,1.6V342.1z"/>
			</g>
		</g>
	</g>
</g>
</svg>
