<?xml version="1.0" encoding="utf-8"?>
<!-- Generator: Adobe Illustrator 18.1.1, SVG Export Plug-In . SVG Version: 6.00 Build 0)  -->
<!DOCTYPE svg PUBLIC "-//W3C//DTD SVG 1.1//EN" "http://www.w3.org/Graphics/SVG/1.1/DTD/svg11.dtd">
<svg version="1.1" id="Layer_1" xmlns="http://www.w3.org/2000/svg" xmlns:xlink="http://www.w3.org/1999/xlink" x="0px" y="0px"
	 width="200px" height="200px" viewBox="-1267 297 200 200" enable-background="new -1267 297 200 200" xml:space="preserve">
<g>
	<path fill="#F3F2F5" d="M-1251.1,297h168.2c8.7,0,15.9,7.1,15.9,15.9v168.3c0,8.7-7.1,15.9-15.9,15.9h-168.3
		c-8.7,0-15.9-7.1-15.9-15.9V312.9C-1266.9,304-1259.8,297-1251.1,297z"/>
</g>
<g>
	<path fill="#25AFE5" d="M-1225.7,326.4v43.7h117.4v-43.7H-1225.7z M-1202.7,359.7c-6.3,0-11.1-4.8-11.1-11.1
		c0-6.3,4.8-11.9,11.1-11.9c6.3,0,11.1,4.8,11.1,11.1C-1191.6,354.9-1196.4,359.7-1202.7,359.7z"/>
	<path fill="#25AFE5" d="M-1225.7,374.8v43.7h117.4v-43.7H-1225.7z M-1202.7,408.1c-6.3,0-11.1-4.8-11.1-11.1s4.8-11.1,11.1-11.1
		c6.3,0,11.1,4.8,11.1,11.1S-1196.4,408.1-1202.7,408.1z"/>
	<path fill="#25AFE5" d="M-1225.7,424v43.6h117.4V424H-1225.7z M-1202.7,457.3c-6.3,0-11.1-4.8-11.1-11.1c0-6.3,4.8-11.1,11.1-11.1
		c6.3,0,11.1,4.8,11.1,11.1C-1191.6,451.8-1196.4,457.3-1202.7,457.3z"/>
</g>
</svg>
