<?xml version="1.0" encoding="utf-8"?>
<!-- Generator: Adobe Illustrator 18.1.1, SVG Export Plug-In . SVG Version: 6.00 Build 0)  -->
<svg version="1.1" id="Layer_1" xmlns="http://www.w3.org/2000/svg" xmlns:xlink="http://www.w3.org/1999/xlink" x="0px" y="0px"
	 viewBox="-205 297 200 200" enable-background="new -205 297 200 200" xml:space="preserve">
<rect x="-205" y="297" width="200" height="199.9"/>
<g>
	<path fill="#FFFFFF" d="M-187.8,297V359h165.6V297H-187.8z M-155,344c-8.8,0-16-7.2-16-16s7.2-16,16-16s16,7.2,16,16
		S-146.2,344-155,344z"/>
	<path fill="#FFFFFF" d="M-187.8,365.8V428h165.6v-62.1H-187.8z M-155,413c-8.8,0-16-7.2-16-16s7.2-16,16-16s16,7.2,16,16
		S-146.2,413-155,413z"/>
	<path fill="#FFFFFF" d="M-187.8,434.8V497h165.6v-62.1H-187.8z M-155,481.8c-8.8,0-16-7.2-16-16s7.2-16,16-16s16,7.2,16,16
		C-139,474.8-146.2,481.8-155,481.8z"/>
</g>
</svg>
