<?xml version="1.0" encoding="utf-8"?>
<!-- Generator: Adobe Illustrator 18.1.1, SVG Export Plug-In . SVG Version: 6.00 Build 0)  -->
<!DOCTYPE svg PUBLIC "-//W3C//DTD SVG 1.1//EN" "http://www.w3.org/Graphics/SVG/1.1/DTD/svg11.dtd">
<svg version="1.1" id="Layer_1" xmlns="http://www.w3.org/2000/svg" xmlns:xlink="http://www.w3.org/1999/xlink" x="0px" y="0px"
	 width="32px" height="32px" viewBox="-8 10 32 32" enable-background="new -8 10 32 32" xml:space="preserve">
<g>
	<polygon fill="#00B4A0" points="9,19 7,19 7,25 1,25 1,27 7,27 7,33 9,33 9,27 15,27 15,25 9,25 	"/>
	<path fill="#00B4A0" d="M8,12C0.3,12-6,18.3-6,26S0.3,40,8,40s14-6.3,14-14S15.7,12,8,12z M8,38C1.4,38-4,32.6-4,26S1.4,14,8,14
		s12,5.4,12,12S14.6,38,8,38z"/>
</g>
</svg>
