<?xml version="1.0" encoding="utf-8"?>
<!-- Generator: Adobe Illustrator 18.1.1, SVG Export Plug-In . SVG Version: 6.00 Build 0)  -->
<!DOCTYPE svg PUBLIC "-//W3C//DTD SVG 1.1//EN" "http://www.w3.org/Graphics/SVG/1.1/DTD/svg11.dtd">
<svg version="1.1" id="Layer_1" xmlns="http://www.w3.org/2000/svg" xmlns:xlink="http://www.w3.org/1999/xlink" x="0px" y="0px"
	 width="200px" height="200px" viewBox="-1367 297 200 200" enable-background="new -1367 297 200 200" xml:space="preserve">
<g id="NO_STATE">
	<g id="Limmited">
		<g id="ERROR">
			<g>
				<polygon fill="#E52125" points="-1236.4,356.2 -1267,387 -1297.6,356.2 -1307.8,366.4 -1277,397 -1307.8,427.6 -1297.6,437.8 
					-1267,407.2 -1236.4,437.8 -1226.2,427.6 -1257,397 -1226.2,366.4 				"/>
				<path fill="#E52125" d="M-1267,297c-55.2,0-100,44.8-100,100s44.8,100,100,100s100-44.8,100-100S-1211.8,297-1267,297z
					 M-1267,482.8c-47.2,0-85.8-38.6-85.8-85.8s38.6-85.8,85.8-85.8s85.8,38.6,85.8,85.8S-1219.8,482.8-1267,482.8z"/>
			</g>
		</g>
	</g>
</g>
</svg>
